<?xml version="1.0" encoding="utf-8"?>
<!-- Generator: Adobe Illustrator 16.0.3, SVG Export Plug-In . SVG Version: 6.00 Build 0)  -->
<!DOCTYPE svg PUBLIC "-//W3C//DTD SVG 1.1//EN" "http://www.w3.org/Graphics/SVG/1.1/DTD/svg11.dtd">
<svg version="1.1" id="Layer_1" xmlns="http://www.w3.org/2000/svg" xmlns:xlink="http://www.w3.org/1999/xlink" x="0px" y="0px"
	 width="212px" height="250px" viewBox="0 0 212 250" enable-background="new 0 0 212 250" xml:space="preserve">
<g>
	<path fill-rule="evenodd" clip-rule="evenodd" fill="#FFFFFF" d="M103.91,156.221c-6.373,16.131-17.127,25.752-33.363,28.443
		c-16.687,2.766-30.252-3.098-41.292-15.672c-1.572-1.793-4.068-3.248-6.39-3.82c-6.265-1.539-12.667-2.518-20.061-3.918
		c3.252-3.172,5.727-6.02,8.633-8.328c5.72-4.545,8.563-9.857,9.618-17.514c2.459-17.85,13.496-29.494,30.895-33.833
		c18.188-4.537,33.394,1.378,45.229,15.898c0.77,0.943,1.496,1.918,2.564,3.292c0.908-1.524,1.693-2.735,2.373-4.002
		c10.906-20.32,21.793-40.65,32.695-60.971c3.709-6.917,7.572-8.093,14.482-4.396c13.881,7.427,27.79,14.803,41.575,22.405
		c1.694,0.935,3.326,2.913,3.927,4.752c3.463,10.631,6.719,21.336,9.755,32.098c0.525,1.861,0.253,4.425-0.649,6.138
		c-11.21,21.252-22.597,42.411-33.956,63.583c-3.259,6.072-7.233,7.342-13.314,4.102c-16.087-8.57-32.134-17.219-48.196-25.834
		C107.018,157.885,105.601,157.127,103.91,156.221z M182.519,78.883c-10.6-5.681-20.673-11.1-30.767-16.48
		c-5.846-3.117-9.739-1.918-12.907,3.985c-12.15,22.628-24.285,45.265-36.406,67.907c-3.516,6.566-2.383,10.217,4.314,13.82
		c15.442,8.309,30.899,16.592,46.364,24.863c6.156,3.291,9.936,2.152,13.236-3.998c8.557-15.938,17.084-31.891,25.623-47.836
		c0.634-1.184,1.268-2.366,2.132-3.977c-5.939-3.184-11.531-6.112-17.058-9.161c-5.056-2.789-6.295-7.024-3.598-12.176
		C176.325,90.343,179.292,84.905,182.519,78.883z M18.232,156.764c3.371,0.707,5.634,1.529,7.912,1.58
		c3.89,0.086,6.089,2.131,8.277,5.088c16.743,22.609,50.686,18.316,61.418-6.461c1.271-2.941,1.311-4.469-1.801-6.152
		c-5.282-2.859-6.237-7.166-3.405-12.584c1.15-2.203,2.2-4.475,3.555-6.547c1.403-2.145,1.157-3.92-0.093-6.06
		c-8.352-14.292-24.939-21.275-40.807-17.057c-15.818,4.206-25.789,17.486-25.797,34.652c-0.003,3.213-0.422,5.783-3.335,7.76
		C22.187,152.318,20.677,154.328,18.232,156.764z"/>
	<path fill-rule="evenodd" clip-rule="evenodd" fill="#FFFFFF" d="M105.236,70.328c-0.285-2.297-0.479-3.855-0.67-5.414
		c0.33-0.332,0.66-0.664,0.99-0.996c2.182,1.542,5.1,2.62,6.414,4.708c5.643,8.961,2.362,14.904-8.217,14.979
		c-2.297,0.016-4.606-1.671-6.912-2.573c0.041-0.406,0.08-0.812,0.119-1.218c1.346-0.713,2.693-1.425,4.067-2.151
		c-5.999-5.472-15.772-3.662-20.485,3.9c-1.962,3.148-3.519,6.554-5.163,9.89c-1.205,2.45-2.824,1.652-4.408,0.653
		c-1.603-1.01-4.599-1.517-3.005-4.344c2.768-4.897,5.389-10.054,9.07-14.218c6.178-6.982,16.036-8.47,24.679-4.741
		C102.709,69.231,103.701,69.662,105.236,70.328z"/>
	<path fill-rule="evenodd" clip-rule="evenodd" fill="#FFFFFF" d="M72.613,140.695c1.495-2.789,3.089-5.531,4.461-8.381
		c1.936-4.016,0.689-7.303-3.459-9.619c-4.3-2.401-7.773-1.984-10.038,1.82c-3.234,5.433-6.225,11.029-8.977,16.72
		c-1.901,3.934-0.265,7.375,3.887,9.48c4.299,2.182,7.886,1.252,10.215-2.752C70.085,145.588,71.316,143.123,72.613,140.695z
		 M76.606,146.605c-0.462-0.26-0.925-0.52-1.389-0.779c-1.103,2.059-2.187,4.125-3.311,6.17c-2.783,5.063-6.976,7.066-11.92,5.721
		c-7.118-1.938-12.347-6.867-11.852-12.045c0.275-2.879,2.033-5.605,3.024-8.434c0.456-1.301,0.678-2.682,1.005-4.025
		c-8.578,6.061-9.235,15.838-2.151,22.205c2.188,1.969,2.57,3.479,1.084,5.908c-0.731,1.199-0.878,2.754-1.292,4.145
		c0.499,0.172,0.999,0.342,1.499,0.514c1.355-2.131,2.712-4.262,4.026-6.33C68.542,161.742,77.206,156.369,76.606,146.605z"/>
	<path fill-rule="evenodd" clip-rule="evenodd" fill="#FFFFFF" d="M137.615,146.377c6.688,3.578,13.368,7.174,20.063,10.74
		c2.573,1.373,4.454,3.146,2.777,6.234c-1.634,3.014-4.277,2.646-6.803,1.303c-13.513-7.195-27.007-14.43-40.478-21.705
		c-2.628-1.422-4.623-3.408-2.77-6.654c1.777-3.113,4.297-2.203,6.785-0.863C123.992,139.09,130.804,142.732,137.615,146.377z"/>
	<path fill-rule="evenodd" clip-rule="evenodd" fill="#FFFFFF" d="M145.316,132.035c6.692,3.586,13.369,7.201,20.085,10.742
		c2.654,1.4,4.316,3.23,2.695,6.27c-1.629,3.051-4.151,2.645-6.739,1.258c-13.626-7.309-27.254-14.611-40.875-21.928
		c-2.631-1.412-4.16-3.409-2.414-6.375c1.611-2.738,3.976-2.452,6.444-1.121C131.44,124.614,138.381,128.32,145.316,132.035z"/>
	<path fill-rule="evenodd" clip-rule="evenodd" fill="#FFFFFF" d="M148.694,124.942c-6.689-3.584-13.365-7.188-20.071-10.743
		c-2.708-1.436-4.761-3.212-2.884-6.495c1.716-3.005,4.313-2.422,6.825-1.079c13.508,7.218,27.004,14.456,40.494,21.706
		c2.568,1.381,4.282,3.336,2.743,6.355c-1.591,3.117-4.063,2.627-6.678,1.207c-6.787-3.691-13.612-7.313-20.423-10.963
		C148.699,124.933,148.697,124.938,148.694,124.942z"/>
	<path fill-rule="evenodd" clip-rule="evenodd" fill="#FFFFFF" d="M143.604,103.899c-2.789-1.489-5.635-2.883-8.343-4.507
		c-2.216-1.329-3.433-3.222-1.956-5.87c1.472-2.645,3.736-2.627,6.025-1.444c5.736,2.968,11.422,6.038,17.077,9.158
		c2.353,1.298,3.345,3.31,1.956,5.868c-1.422,2.62-3.685,2.613-6.025,1.443C149.389,107.074,146.513,105.452,143.604,103.899z"/>
	<path fill-rule="evenodd" clip-rule="evenodd" fill="#FFFFFF" d="M72.615,140.695c-1.299,2.428-2.53,4.893-3.913,7.27
		c-2.329,4.004-5.916,4.934-10.215,2.752c-4.152-2.105-5.788-5.547-3.887-9.48c2.752-5.691,5.743-11.287,8.977-16.72
		c2.265-3.805,5.738-4.222,10.038-1.82c4.148,2.315,5.395,5.603,3.459,9.619C75.702,135.164,74.108,137.906,72.615,140.695z"/>
	<path fill-rule="evenodd" clip-rule="evenodd" fill="#FFFFFF" d="M76.606,146.605c0.6,9.764-8.064,15.137-21.276,13.049
		c-1.314,2.068-2.671,4.199-4.026,6.33c-0.5-0.172-1-0.342-1.499-0.514c0.413-1.391,0.56-2.945,1.292-4.145
		c1.486-2.43,1.104-3.939-1.084-5.908c-7.083-6.367-6.426-16.145,2.151-22.205c-0.327,1.344-0.549,2.725-1.005,4.025
		c-0.992,2.828-2.75,5.555-3.024,8.434c-0.495,5.178,4.734,10.107,11.852,12.045c4.944,1.346,9.138-0.658,11.92-5.721
		c1.125-2.045,2.208-4.111,3.311-6.17C75.681,146.086,76.144,146.346,76.606,146.605z"/>
</g>
</svg>
