<?xml version="1.0" encoding="utf-8"?>
<!-- Generator: Adobe Illustrator 16.0.3, SVG Export Plug-In . SVG Version: 6.00 Build 0)  -->
<!DOCTYPE svg PUBLIC "-//W3C//DTD SVG 1.1//EN" "http://www.w3.org/Graphics/SVG/1.1/DTD/svg11.dtd">
<svg version="1.1" id="Layer_1" xmlns="http://www.w3.org/2000/svg" xmlns:xlink="http://www.w3.org/1999/xlink" x="0px" y="0px"
	 width="612px" height="792px" viewBox="0 0 612 792" enable-background="new 0 0 612 792" xml:space="preserve">
<g>
	<g>
		<path fill-rule="evenodd" clip-rule="evenodd" fill="#96BEE5" d="M519.861,246.949c0.06,1-0.37,1.53-1.15,2.02
			c-5.55,3.459-11.091,6.949-16.631,10.448c-9.081,5.719-18.161,11.458-27.242,17.188c-11.72,7.389-23.44,14.778-35.151,22.157
			c-8.65,5.449-17.302,10.898-25.941,16.348c-9.121,5.75-18.231,11.499-27.352,17.248c-8.641,5.459-17.291,10.898-25.941,16.348
			c-9.111,5.749-18.23,11.508-27.342,17.257c-1.86,1.169-3.72,2.33-5.59,3.479c-0.53,0.33-1.11,0.59-1.87,0.979l0.001-6.5
			c0-1.68,0.07-3.37-0.021-5.04c-0.05-1.03,0.351-1.6,1.181-2.109c4.12-2.52,8.221-5.089,12.32-7.639
			c5.86-3.64,11.731-7.279,17.602-10.928c10.64-6.609,21.28-13.238,31.932-19.847c9.19-5.709,18.391-11.398,27.581-17.098
			c10.581-6.569,21.151-13.148,31.732-19.718c10.58-6.569,21.16-13.138,31.741-19.717c10.58-6.569,21.151-13.138,31.741-19.707
			c2.371-1.47,4.761-2.919,7.141-4.37c0.311-0.19,0.641-0.32,1.23-0.62l-0.001,5.14
			C519.831,243.829,519.761,245.398,519.861,246.949z"/>
		<path fill-rule="evenodd" clip-rule="evenodd" fill="#96BEE5" d="M305.77,370.59c-1.84-1.121-3.4-2.05-4.94-3.021
			c-4.889-3.061-9.779-6.131-14.659-9.221c-4.41-2.79-8.79-5.611-13.209-8.391c-4.78-3.021-9.58-6.001-14.37-9.011
			c-5.149-3.25-10.28-6.521-15.439-9.771c-5.25-3.311-10.52-6.601-15.769-9.912c-5.53-3.491-11.04-6.991-16.559-10.481
			c-4.88-3.081-9.78-6.131-14.66-9.211c-3.87-2.45-7.719-4.931-11.589-7.371c-4.65-2.931-9.32-5.821-13.97-8.741
			c-4.319-2.72-8.609-5.471-12.919-8.191c-4.88-3.08-9.77-6.15-14.649-9.231c-3.91-2.46-7.799-4.961-11.709-7.411
			c-4.78-3.011-9.589-5.991-14.379-8.992c-1.58-1-3.19-1.96-4.72-3.041c-0.37-0.27-0.62-0.93-0.64-1.42c-0.06-2.27,0-4.56-0.04-6.83
			c-0.02-0.83-0.209-1.65-0.29-2.47c-0.03-0.26,0.04-0.53,0.06-0.79c0.29,0.04,0.62,0,0.85,0.14c2.39,1.441,4.76,2.901,7.129,4.371
			c3.92,2.42,7.85,4.851,11.77,7.292c5.54,3.451,11.069,6.931,16.609,10.372c5.04,3.13,10.099,6.22,15.139,9.351
			c5.51,3.43,11,6.881,16.509,10.312c3.79,2.35,7.6,4.651,11.39,7.001c4.66,2.91,9.309,5.851,13.969,8.751
			c5.1,3.18,10.229,6.321,15.33,9.501c4.229,2.62,8.43,5.291,12.659,7.911c5,3.111,10.029,6.181,15.029,9.281
			c5.549,3.45,11.069,6.941,16.609,10.381c5.15,3.181,10.32,6.311,15.459,9.501c4.2,2.601,8.35,5.271,12.54,7.891
			c4.189,2.61,8.4,5.171,12.579,7.801c0.38,0.24,0.84,0.75,0.84,1.14C305.791,362.12,305.771,366.16,305.77,370.59z"/>
		<path fill-rule="evenodd" clip-rule="evenodd" fill="#9783BD" d="M274.59,370.897c-1.93,2.19-3.71,4.34-5.621,6.35
			c-5.101,5.37-10.841,9.929-17.542,13.168c-10.18,4.929-20.67,5.628-31.29,1.728c-13.29-4.882-23.899-13.063-30.607-25.793
			c-3.549-6.74-5.399-13.99-6.108-21.53c-0.91-9.8,0.011-19.47,2.192-29.04c0.05-0.24,0.14-0.46,0.24-0.75
			c0.2,0.08,0.38,0.14,0.54,0.23c4.12,2.601,8.229,5.211,12.379,7.781c0.65,0.41,0.67,0.79,0.49,1.46
			c-1.92,7.44-2.492,14.94-1.242,22.57c2.589,15.77,16.068,28.731,31.908,30.382c9.12,0.961,17.1-2.048,24.051-7.817
			c2.57-2.13,4.85-4.62,7.4-7.07C265.631,365.247,270.01,368.006,274.59,370.897z"/>
		<path fill-rule="evenodd" clip-rule="evenodd" fill="#9783BD" d="M446.232,347.332c-2.502,18.08-11.543,31.709-27.554,40.618
			c-6.25,3.479-12.841,5.898-20.03,6.378c-10.601,0.699-19.851-2.872-28.289-8.983c-5.19-3.76-9.67-8.24-13.719-13.171
			c-0.17-0.22-0.32-0.45-0.551-0.78c4.311-2.72,8.49-5.36,12.531-7.909c2.379,2.21,4.569,4.5,7.009,6.48
			c5.9,4.8,12.649,7.612,20.35,7.672c6.83,0.05,13.03-2.129,18.721-5.798c10.07-6.499,15.571-15.809,16.872-27.639
			c0.69-6.22,0.161-12.37-1.288-18.44c-0.14-0.58-0.26-1.02,0.39-1.42c4.48-2.79,8.932-5.609,13.392-8.418
			c0.1-0.06,0.22-0.07,0.52-0.16c0.53,3.1,1.14,6.15,1.549,9.22C447.113,332.422,447.263,339.872,446.232,347.332z"/>
		<path fill-rule="evenodd" clip-rule="evenodd" fill="#71CFEF" d="M298.529,262.069c-16.121,13.019-29.662,28.298-41.424,45.337
			c-22.338-13.872-44.587-27.694-66.986-41.606c5.32-3.77,10.74-7.059,16.36-10.029c8.4-4.429,17.171-7.938,26.241-10.708
			c2.18-0.67,4.35-0.469,6.53-0.369c20.74,0.872,40.1,6.563,58.179,16.705C297.74,261.579,298.04,261.769,298.529,262.069z"/>
		<path fill-rule="evenodd" clip-rule="evenodd" fill="#71CFEF" d="M439.729,266.832c-22.812,14.158-45.563,28.286-68.435,42.484
			c-12.018-17.742-25.947-33.692-42.735-47.264c7.36-4.209,14.811-7.649,22.602-10.358c13.51-4.719,27.43-7.078,41.729-7.066
			c1.7,0.01,3.431,0.65,5.091,1.17c14.88,4.651,28.608,11.592,41.287,20.634C439.399,266.521,439.509,266.642,439.729,266.832z"/>
		<path fill-rule="evenodd" clip-rule="evenodd" fill="#96BEE5" d="M332.786,415.502c-0.041,6.381-0.771,12.66-2.622,18.791
			c-2.47,8.129-6.73,15.119-13.041,20.848c-0.811,0.73-1.301,0.66-2.061-0.029c-7.449-6.762-11.908-15.191-14.078-24.932
			c-1.599-7.17-1.729-14.4-1.308-21.689c0.36-6.191,1.271-14.418,2.812-20.408c0.11-0.42,1.454,0.664,1.664,0.013
			c3.61,2.161,2.958,3.173,6.297,5.343c1.35,0.881,6.229,0.841,7.539,0c3.57-2.259,6.41-2.767,10.03-4.937
			c0.229-0.14,0.489-0.22,0.96-0.42c0.33,1.21,0.689,2.33,0.96,3.46C331.797,399.422,332.837,407.402,332.786,415.502z"/>
		<path fill-rule="evenodd" clip-rule="evenodd" fill="#96BEE5" d="M337.649,495.223c-0.251,12.59-2.292,24.799-7.853,36.25
			c-3.621,7.459-8.492,13.979-14.702,19.488c-0.17,0.16-0.37,0.289-0.591,0.459c-4.09-3.51-7.589-7.479-10.588-11.9
			c-5.899-8.68-9.349-18.311-11.087-28.592c-2.489-14.83-1.478-29.549,1.294-44.219c0.44-2.32,0.99-4.611,1.48-6.91
			c0.04-0.16,0.1-0.309,0.21-0.66c5.58,7.291,12.398,12.973,20.299,17.422c6.65-3.75,12.65-8.449,17.951-14.527
			c0.679,3.75,1.379,7.17,1.919,10.619C337.15,480.123,337.789,487.652,337.649,495.223z"/>
		<path fill-rule="evenodd" clip-rule="evenodd" fill="#9783BD" d="M300.354,561.08c-0.11,0.17-0.22,0.33-0.34,0.49h-1.13
			c-9.24-0.002-18.48,0.107-27.72-0.023c-20.54-0.303-40.129-4.813-58.739-13.535c-0.25-0.119-0.49-0.26-0.88-0.449
			c0.71-0.432,1.34-0.801,1.971-1.182c6.14-3.748,11.65-8.299,16.811-13.287c12.931-12.5,23.853-26.678,34.193-41.328
			c3.48-4.93,6.791-9.979,10.182-14.969c0.2-0.289,0.41-0.57,0.49-0.67c-0.24,6.441-0.741,13.021-0.682,19.6
			c0.129,15.531,3.047,30.49,10.096,44.473c3.779,7.49,8.648,14.18,14.538,20.141C299.474,560.66,299.954,560.84,300.354,561.08z"/>
		<path fill-rule="evenodd" clip-rule="evenodd" fill="#9783BD" d="M417.295,547.449c-1.931,0.869-3.851,1.789-5.801,2.619
			c-13.021,5.539-26.54,9.219-40.641,10.598c-5.2,0.51-10.43,0.779-15.66,0.869c-8.279,0.139-16.56,0.037-24.84,0.037h-1.57
			c0.7-0.75,1.23-1.35,1.79-1.92c11.271-11.6,18.072-25.52,21.504-41.188c1.961-8.91,2.741-17.941,2.502-27.031
			c-0.129-5.029-0.648-10.039-0.987-15.059c-0.011-0.271,0-0.531,0-1.031c0.35,0.48,0.58,0.781,0.789,1.102
			c9.629,14.631,19.728,28.922,31.116,42.252c7.34,8.58,15.089,16.762,24.179,23.531
			C412.104,544.039,414.675,545.66,417.295,547.449z"/>
		<path fill-rule="evenodd" clip-rule="evenodd" fill="#6CCBDA" d="M356.726,318.334c-0.44,0.29-0.9,0.59-1.36,0.88
			c-12.791,7.938-25.582,15.877-38.363,23.847c-0.93,0.59-1.59,0.6-2.539,0.009c-13.89-8.671-27.799-17.302-41.718-25.943
			c-0.33-0.21-0.67-0.42-1.17-0.74c11.771-16.949,25.452-31.998,41.924-44.397C325.148,279.312,350.576,306.554,356.726,318.334z"/>
		<path fill-rule="evenodd" clip-rule="evenodd" fill="#6CCBDA" d="M494.022,464.346c-0.35,0.871-0.79,1.111-1.661,1.09
			c-5.639-0.119-10.688-2.111-15.519-4.801c-6.79-3.791-12.709-8.721-18.239-14.143c-12.859-12.609-23.457-27.002-33.126-42.133
			c-0.11-0.158-0.17-0.35-0.181-0.35c3.65-2.42,7.381-4.619,10.821-7.199c13.841-10.409,22.332-24.268,25.893-41.157
			c3.402-16.18,2.083-32.18-2.034-48.061c-0.12-0.46-0.23-0.92-0.37-1.47c4.12-2.6,8.239-5.199,12.47-7.869
			c0.25,0.31,0.51,0.6,0.74,0.9c15.568,20.681,25.676,43.772,30.534,69.192c1.829,9.59,2.798,19.281,2.958,29.049
			C506.705,420.537,502.664,442.857,494.022,464.346z"/>
		<path fill-rule="evenodd" clip-rule="evenodd" fill="#6CCBDA" d="M204.267,403.73c-0.95,1.471-1.85,2.9-2.79,4.32
			c-8.091,12.309-16.872,24.1-27.093,34.738c-6.84,7.119-14.141,13.688-22.931,18.377c-4.801,2.561-9.841,4.379-15.421,4.219
			c-0.93-0.02-1.3-0.381-1.62-1.18c-5.609-14.02-9.368-28.512-11.066-43.521c-3.847-33.91,1.586-66.219,16.878-96.798
			c4.611-9.199,10.111-17.859,16.422-25.999c0.22-0.28,0.46-0.55,0.76-0.9c2.68,1.69,5.349,3.371,8.009,5.041
			c1.49,0.94,2.95,1.92,4.47,2.8c0.73,0.42,0.84,0.82,0.609,1.63c-2.581,9.03-4.062,18.24-4.353,27.63
			c-0.401,12.82,1.418,25.26,6.797,37.021c6.328,13.86,16.468,24.191,29.637,31.663C203.097,403.061,203.617,403.361,204.267,403.73
			z"/>
		<path fill-rule="evenodd" clip-rule="evenodd" fill="#71CFEF" d="M485.681,481.885c-1.061,1.83-2.04,3.6-3.08,5.33
			c-6.491,10.76-14.082,20.67-22.883,29.648c-6.291,6.41-13.102,12.189-20.322,17.518c-1.71,1.26-3.45,1.41-5.34,1.18
			c-3.28-0.41-6.2-1.791-8.999-3.451c-6.88-4.07-12.69-9.439-18.179-15.16c-14.34-14.902-26.367-31.604-37.587-48.895
			c-7.198-11.09-13.907-22.49-20.797-33.781c-0.33-0.541-0.43-1.369-0.31-2c1.661-8.75,1.882-17.541,1.143-26.391
			c-0.51-6.18-1.789-12.229-3.059-18.28c-0.089-0.42-0.14-0.859-0.209-1.279c0.09-0.07,0.18-0.13,0.279-0.19
			c2.01,2.05,4.02,4.1,6.029,6.14c5.34,5.451,11.539,9.721,18.359,13.102c8.938,4.432,18.419,6.533,28.409,5.934
			c3.25-0.201,6.479-0.781,9.79-1.189c2.439,3.73,4.899,7.6,7.469,11.4c8.858,13.061,18.488,25.512,29.767,36.592
			c7.709,7.572,16.01,14.361,25.788,19.143c4.19,2.041,8.53,3.592,13.12,4.451C485.211,481.734,485.36,481.785,485.681,481.885z"/>
		<path fill-rule="evenodd" clip-rule="evenodd" fill="#71CFEF" d="M285.268,390.368c-2.501,11.589-3.652,23.31-2.163,35.12
			c0.38,3.09-0.25,5.479-1.761,8.068c-12.782,22-26.354,43.469-41.936,63.607c-7.401,9.559-15.222,18.758-24.282,26.818
			c-4.34,3.859-8.901,7.439-14.241,9.857c-2.56,1.16-5.19,2.07-8.101,1.721c-0.26-0.031-0.57,0.34-1.02,0.619
			c-10.069-6.861-19.269-14.963-27.538-24.143c-8.24-9.15-15.318-19.131-21.158-29.721c4.12-1.391,8.26-2.51,12.17-4.16
			c8.71-3.678,16.181-9.309,23.162-15.598c11.86-10.68,21.872-22.979,31.013-35.986c3.61-5.141,6.961-10.451,10.421-15.68
			c0.33-0.5,0.53-0.949,1.36-0.76c18,4.021,34.08-0.486,48.731-11.137c6.09-4.418,11.401-9.649,16.182-15.448
			c0.27-0.32,0.54-0.64,0.98-0.849C286.479,385.248,285.829,387.798,285.268,390.368z"/>
		<path fill-rule="evenodd" clip-rule="evenodd" fill="#94BEE6" d="M335.182,239.353c-7.101,3.79-14.411,7.699-21.631,11.548
			c-7.16-3.831-14.489-7.751-21.609-11.552L335.182,239.353z"/>
		<path fill-rule="evenodd" clip-rule="evenodd" fill="#2FBEBC" d="M204.321,403.869c-0.95,1.469-1.904,3.762-2.844,5.182
			c-8.091,12.309-16.872,24.1-27.093,34.738c-6.84,7.119-14.142,13.688-22.931,18.377c-4.801,2.561-9.841,4.379-15.421,4.219
			c-0.19,0-0.35-0.02-0.5-0.061c-0.39-0.34-0.77-0.719-1.12-1.119c-0.74-1.85-1.45-3.721-2.13-5.59
			c-26.295-47.422,38.38-154.583,38.38-154.583l-0.067,1.866c0,0.16-0.04,0.35-0.1,0.56c-2.581,9.03-4.062,18.24-4.353,27.629
			c-0.401,12.82,2.134,25.685,7.514,37.445c6.328,13.859,14.995,22.03,28.164,29.502
			C202.341,402.324,203.671,403.498,204.321,403.869z"/>
		<path fill-rule="evenodd" clip-rule="evenodd" fill="#6CCBDA" d="M20.489,381.185L20.489,381.185z"/>
		<path fill-rule="evenodd" clip-rule="evenodd" fill="#2FBEBC" d="M506.834,408.895c-0.842,19.289-4.863,38-12.145,56.119
			c-0.351,0.869-0.791,1.109-1.661,1.09c-5.64-0.121-10.688-2.111-15.519-4.801c-6.79-3.791-12.709-8.721-18.239-14.143
			c-3.17-3.109-6.209-6.33-9.119-9.641c10.093-31.33,35.417-77.177,46.209-96.036c3.229,8.67,5.738,17.661,7.547,26.96
			L506.834,408.895z"/>
		<path fill-rule="evenodd" clip-rule="evenodd" fill="#66459B" d="M274.59,370.897c-1.93,2.189-3.71,4.34-5.62,6.349
			c-5.101,5.37-10.842,9.929-17.542,13.168c-10.181,4.929-20.671,5.628-31.29,1.728c-3.24-1.191-6.32-2.571-9.22-4.182
			c2.75-4.02,6.571-8.189,11.041-12.349c2.561,0.93,5.23,1.55,7.971,1.84c9.119,0.961,17.1-2.048,24.05-7.818
			c2.569-2.13,4.85-4.62,7.4-7.069C265.63,365.247,270.01,368.006,274.59,370.897z"/>
		<path fill-rule="evenodd" clip-rule="evenodd" fill="#5C83C2" d="M338.649,494.223c-0.251,12.59-2.292,24.799-7.853,36.25
			c-3.621,7.459-8.492,13.979-14.702,19.488c-9.876-40.252,7.884-48.75,8.885-58.75s-7.868-15.65-7.868-15.65
			c6.649-3.75,12.649-8.447,17.951-14.527c0.68,3.75,1.379,7.17,1.919,10.619C338.15,479.123,338.791,486.652,338.649,494.223z"/>
	</g>
	<path fill-rule="evenodd" clip-rule="evenodd" fill="#3FBBEC" d="M487.054,481.381c-1.065,1.865-2.05,3.668-3.095,5.432
		c-6.523,10.965-14.151,21.064-22.995,30.215c-6.321,6.533-13.166,12.424-20.422,17.855c-1.718,1.283-3.466,1.438-5.365,1.201
		c-2.382-0.305-4.573-1.119-6.663-2.191c-0.684-0.408-1.477-0.846-2.381-1.326c-1.075-0.641-2.13-1.324-3.155-2.037
		c-0.02-0.01-0.039-0.02-0.061-0.041c-22.337-17.43-45.08-98.914-13.931-120.436c8.271,12.088,27.976,36.762,38.355,47.098
		c7.748,7.717,16.088,14.637,25.914,19.51c4.211,2.08,8.572,3.66,13.185,4.537C486.582,481.227,486.731,481.277,487.054,481.381z"/>
	<path fill-rule="evenodd" clip-rule="evenodd" fill="#3FBBEC" d="M285.333,390.396c-2.501,11.607-3.652,23.348-2.163,35.176
		c0.38,3.096-0.25,5.488-1.761,8.084c-12.782,22.035-26.354,43.539-41.936,63.709c-7.401,9.576-15.222,18.789-24.283,26.863
		c-3.19,2.844-6.51,5.537-10.16,7.721c-1.31,0.791-2.67,1.512-4.08,2.152c-2.56,1.162-5.94,2.699-8.851,2.348
		c-0.26-0.029,0.18-0.283-0.27-0.004c-21.668-17.57,10.978-91.619,25.161-121.055c0.97-1.482,1.94-2.963,2.911-4.436
		c0.33-0.502,0.53-0.953,1.36-0.762c0.52,0.119,1.03,0.221,1.54,0.32c17.379,3.447,32.96-1.109,47.191-11.475
		c6.09-4.426,11.401-9.666,16.182-15.475c0.27-0.32,0.54-0.641,0.98-0.85C286.544,385.268,285.894,387.821,285.333,390.396z"/>
	<path fill-rule="evenodd" clip-rule="evenodd" fill="#66459B" d="M446.232,347.333c-2.502,18.08-11.543,31.709-27.555,40.618
		c-4.43,2.469-9.029,4.398-13.899,5.488c-1.06-4.92-1.51-10.59-1.51-16.621c4.032-0.939,7.831-2.658,11.432-4.979
		c10.069-6.499,15.57-15.809,16.872-27.638c0.69-6.221,0.161-12.37-1.288-18.44c-0.14-0.58-0.261-1.021,0.39-1.42
		c4.48-2.79,8.931-5.609,13.392-8.418c0.1-0.061,0.22-0.07,0.52-0.16c0.53,3.1,1.14,6.15,1.55,9.22
		C447.113,332.422,447.263,339.873,446.232,347.333z"/>
	<path fill="none" d="M211.544,244.586"/>
	<path fill="none" d="M242.754,235.208"/>
	<path fill="#9783BD" d="M184.738,215.458c0,0-5.164,33.386-2.957,35.443c0,0,24.582-15.693,42.707-21.193L184.738,215.458z"/>
	<path fill="#9783BD" d="M439.982,215.458c0,0,5.164,33.386,2.957,35.443c0,0-24.582-15.693-42.707-21.193L439.982,215.458z"/>
	<g>
		<path fill-rule="evenodd" clip-rule="evenodd" fill="#402F58" d="M537.48,256.65v-50c-1.36,0.6-2.801,1.05-4.04,1.82
			c-18.551,11.47-37.07,23-55.601,34.5c-6.28,3.89-12.58,7.74-19.47,11.98c1.52-21.2-2.14-40.79-7.22-60.5
			c-25.551,9.07-50.431,17.95-75.37,26.69c-2.59,0.9-5.49,1.28-8.24,1.27c-32.31-0.06-64.63-0.47-96.94-0.27
			c-10.34,0.06-20.19,0.06-30.23-3.85c-21.82-8.51-44.1-15.84-66.57-23.79c-4.99,18.14-7.84,36.33-7.89,55.55
			c-23.85-14.79-47.06-29.18-70.9-43.96c0,16.92-0.09,32.74,0.13,48.55c0.02,1.55,1.55,3.58,2.96,4.54
			c5.35,3.67,10.95,6.98,16.44,10.45c9.37,5.93,18.74,11.88,28.3,17.94c-0.94,1.4-1.54,2.37-2.21,3.29
			c-45.69,62-47.48,151.17-3.14,214.121c33.86,48.079,80.26,73.689,139.88,73.5c26.5-0.08,53,0.289,79.479-0.091
			c43.62-0.609,81.41-16.159,112.351-46.81c55.76-55.25,70.479-138.49,37.439-209.79c-5.27-11.39-12.18-22.03-18.55-33.4
			c5.68-3.59,11.88-7.45,18.021-11.41C516.59,270.23,527.02,263.43,537.48,256.65z M519.82,245.89c-0.67,1.95-2.23,3.56-4.801,5.18
			c-61.68,38.89-123.369,77.77-185.069,116.65c-0.94,0.59-1.94,1.11-3.62,2.06c0-4.03-0.32-7.35,0.15-10.54
			c0.22-1.45,1.77-3.07,3.149-3.92c46.91-29.23,93.88-58.38,140.83-87.53c16.12-10.01,32.24-20.03,48.39-30.06
			c0.431,1.08,0.75,2.08,0.98,3C520.32,242.74,520.33,244.41,519.82,245.89z M316,549.59c-0.37,0.311-0.74,0.61-1.12,0.91
			c-20.65-14.97-28.87-54.23-18.74-89.72c1.41,1.14,2.81,2.37,4.2,3.66c0.02,0.02,0.04,0.04,0.06,0.06c1.7,1.54,3.38,3.15,5.07,4.73
			c0.01,0.01,0.03,0.029,0.04,0.039c2.66,2.49,5.33,4.91,8.05,6.86c0.521,0.37,1.28,0.37,2.091,0.17h0.01
			c0.55-0.13,1.109-0.35,1.66-0.6c0.819-0.38,1.59-0.84,2.13-1.19c2.47-1.62,4.84-3.38,7.16-5.189c0.029-0.011,0.06-0.04,0.09-0.07
			c2.45-1.89,4.859-3.83,7.28-5.69c0.439,1.471,0.84,2.971,1.21,4.53v0.01c5.359,22.48,3.68,52.801-10.83,72.57
			c-0.03,0.05-0.07,0.09-0.101,0.14c-0.04,0.061-0.09,0.11-0.13,0.171C321.76,544.15,319.06,547.06,316,549.59z M299.72,560.74
			c-30.2,1.45-59.31,0.64-87.1-13.53c13.95-8.7,24.7-19.84,34.37-31.96c9.46-11.86,18.32-24.2,28.12-37.25
			c0.12-0.17,0.25-0.34,0.38-0.51c-2.77,31.31,1.75,59.64,24.26,83.25H299.72z M185.22,530.93
			c-15.51-12.72-28.77-27.199-38.99-44.46c-0.74-1.25-1.36-2.569-2.16-4.08c2.81-1.1,5.55-2.06,8.2-3.08
			c0.24-0.09,0.48-0.18,0.72-0.27c0.03-0.01,0.06-0.021,0.09-0.03c1.74-0.68,3.45-1.399,5.11-2.21c0.81-0.39,1.6-0.8,2.39-1.22
			c0.08-0.04,0.16-0.09,0.24-0.13c15.29-8.13,26.94-20.58,37.6-33.92c3.13-3.92,6.07-7.99,8.97-12.11c0.1-0.13,0.2-0.27,0.3-0.42
			c1.14-1.61,2.27-3.24,3.41-4.87c0.05-0.08,0.1-0.149,0.16-0.229c0.01-0.011,0.02-0.03,0.03-0.04c1.68-2.41,3.37-4.811,5.09-7.2
			c0-0.01,0.01-0.01,0.01-0.021c0.74-1.01,1.47-2.02,2.22-3.02c1.1-1.47,3.57-3.03,5.23-2.91c0.03,0,0.05,0,0.07,0.01
			c0.01,0,0.01,0,0.02,0c0.03,0,0.06,0,0.09,0.011c0.55,0.079,1.1,0.159,1.65,0.22c0.04,0.01,0.08,0.02,0.12,0.02
			c7.29,0.94,14.07,0.61,20.42-0.76c0.02,0,0.03-0.01,0.05-0.01c0.25-0.061,0.5-0.12,0.76-0.181c1.95-0.449,3.86-1,5.73-1.649
			c0.04-0.01,0.07-0.021,0.11-0.04c11.6-4.04,21.73-11.72,30.97-21.64c0.65-0.71,1.31-1.42,2.56-2.78c-0.25,1.67-0.51,3.3-0.77,4.9
			c0,0.02-0.01,0.04-0.01,0.06c-0.07,0.36-0.12,0.72-0.18,1.08c0,0.02-0.01,0.04-0.01,0.06c-0.87,5.25-1.7,10.17-2.1,15.12
			c-0.5,6.101,0.11,12.29-0.18,18.42c-0.02,0.42-0.04,0.83-0.06,1.26v0.011c0,0,0,0.01,0,0.02c-0.01,0.07-0.01,0.16-0.02,0.24
			c0,0.01,0,0.01,0,0.02c-0.16,2.96-0.47,6.08-1.84,8.45c-3.71,6.431-7.47,12.83-11.33,19.16c-0.29,0.48-0.59,0.96-0.89,1.44
			c-8.94,14.6-18.41,28.83-29.02,42.26c-0.03,0.04-0.06,0.08-0.09,0.12c-0.06,0.069-0.11,0.14-0.17,0.22
			c-4.39,5.53-8.97,10.93-13.78,16.16c-6.57,7.14-14.44,13.22-22.27,19.06c-4.77,3.57-9.57,4.141-14.6,1.54
			C187.8,532.85,186.52,531.99,185.22,530.93z M152.49,304.14c1.55-2.34,3.31-4.55,5.1-7c0.05,0.02,0.1,0.04,0.14,0.05
			c0.01,0.01,0.01,0.01,0.02,0.01c0.75,0.29,1.07,0.37,1.33,0.53c3.55,2.17,5.98,3.67,7.58,5.09l0.01,0.01
			c1.59,1.42,2.36,2.75,2.58,4.59c0.15,1.23,0.07,2.68-0.18,4.53v0.01c-0.12,0.92-0.28,1.93-0.47,3.07c0,0.03-0.01,0.07-0.02,0.1
			c0,0.02-0.01,0.04-0.01,0.06c-0.13,0.84-0.28,1.75-0.45,2.73c-1.98,11.71-2.54,23.18-0.78,34.11c0.02,0.14,0.04,0.28,0.07,0.42
			c0.73,4.49,1.87,8.88,3.46,13.16c0.01,0.01,0.01,0.01,0.01,0.02c2.78,7.48,6.94,14.63,12.81,21.34
			c3.98,4.54,8.76,8.38,13.73,12.419c0.01,0.011,0.02,0.021,0.03,0.03c0.37,0.311,0.75,0.61,1.12,0.91
			c0.01,0.01,0.03,0.02,0.04,0.03c1.65,1.35,3.31,2.729,4.97,4.18c-0.69,1.07-1.43,2.37-2.26,3.74c-0.01,0.029-0.02,0.05-0.04,0.08
			c-0.03,0.04-0.05,0.069-0.07,0.109c-0.66,1.07-1.38,2.181-2.18,3.261c-0.01,0.01-0.02,0.02-0.03,0.039c0,0,0,0.011-0.01,0.011
			c-0.25,0.34-0.51,0.67-0.78,1c-10.03,12.17-19.88,24.529-30.5,36.18c-0.97,1.07-1.98,2.09-3.03,3.06
			c-0.01,0.011-0.02,0.021-0.03,0.03c-3.41,3.19-7.21,5.92-11.35,8.09c-0.04,0.021-0.09,0.051-0.13,0.07
			c-0.03,0.03-0.06,0.05-0.09,0.06c-3.05,1.591-6.27,2.881-9.67,3.851c-6.8,1.939-8.13,1.28-10.35-5.22
			c-2.99-8.75-5.34-17.42-7.05-26.021c0-0.01,0-0.01,0-0.02C116.98,387.72,125.51,344.76,152.49,304.14z M295.21,239.45h37.5
			c0.08,0.27,0.17,0.55,0.25,0.82c-5.93,3.17-11.82,6.4-17.82,9.43c-0.81,0.41-2.279,0.12-3.18-0.35
			c-5.72-2.95-11.38-6.04-17.05-9.08C295.01,240,295.11,239.72,295.21,239.45z M404.7,392.8c-0.01,0-0.03,0.01-0.04,0.01
			c-6.42,1.53-13.96,0.58-20.49-1.13c-11.47-2.99-19.76-11.08-27.439-20.46c4.17-2.64,7.899-5.01,12.01-7.62
			c0.05-0.03,0.09-0.06,0.14-0.09c1.58,1.47,3.101,2.93,4.67,4.35c9.62,8.66,20.57,12.23,33.181,7.88c0.96-0.33,1.89-0.69,2.8-1.07
			c0.01,0,0.01,0,0.02-0.01c0.05-0.02,0.11-0.04,0.16-0.07c11.61-4.87,19.29-13.65,21.58-26.53c1.11-6.26,0.479-12.9,0.06-19.32
			c-0.199-3.01,0.021-5.01,2.881-6.52c3.27-1.72,6.319-3.82,10.369-6.33c0.131-0.07,0.261-0.15,0.391-0.23
			c0.77,5.92,1.75,11.06,2.06,16.24c1.25,20.84-5.31,38.31-18.859,49.53c-0.33,0.28-0.66,0.55-1,0.81
			c-0.131,0.11-0.271,0.22-0.4,0.32C420.71,387.24,413.32,390.73,404.7,392.8z M405.72,357.3c-7.38,4.75-13.689,3.83-21.45-3.45
			c10.19-6.44,19.971-12.61,29.83-18.84C416.88,342.93,413.12,352.55,405.72,357.3z M356.62,318.16c-4.39,2.74-8.83,5.53-13.28,8.3
			c-7.899,4.92-15.72,9.97-23.77,14.62c-1.66,0.96-4.73,1.27-6.24,0.37c-13.69-8.17-27.17-16.68-40.69-25.08
			c5.75-11.53,27.9-35.21,41.27-44.12c0.02-0.01,0.03-0.02,0.05-0.03c11.64,7.43,33.58,30.67,41.4,43.73
			c0.13,0.21,0.26,0.42,0.38,0.63c0.13,0.2,0.24,0.4,0.359,0.6c0.091,0.16,0.181,0.33,0.271,0.49
			C356.46,317.84,356.54,318,356.62,318.16z M310.42,393.42c0.01,0.01,0.021,0.01,0.03,0.02c0.189,0.1,0.39,0.18,0.59,0.26
			c0.01,0,0.01,0.01,0.02,0.01c0.011,0.01,0.021,0.01,0.04,0.01c5.65,2.34,11.19-0.53,16.79-5.15c0.011,0,0.011,0,0.021-0.01
			c0.33-0.27,0.67-0.55,1-0.83c3.38,10.02,4.17,19.5,4.03,29.07c-0.16,10.38-2.33,20.07-7.73,28.601c-0.03,0.05-0.06,0.1-0.09,0.149
			c-0.07,0.12-0.15,0.24-0.22,0.36c-0.061,0.1-0.12,0.189-0.19,0.28c-0.27,0.423-0.567,0.828-0.853,1.241
			c-1.031,1.456-2.159,2.882-3.397,4.259c-3.58,3.979-4.53,3.93-8.16-0.19c-8.7-9.87-12.3-21.68-12.19-34.48
			c0.08-9.199,1.48-18.39,2.29-27.58c0.5-0.38,0.99-0.76,1.48-1.13l0.01-0.01c0.09-0.07,0.17-0.13,0.26-0.2
			C306.26,390.7,308.35,392.42,310.42,393.42z M198.83,326.29c0,0.01,0,0.02-0.01,0.02v0.05c-0.02,0.26-0.06,0.5-0.1,0.72
			c-2.03,11.96-1.91,23.57,5.28,34.06c4.87,7.09,11.05,11.91,17.76,14.39c0.28,0.11,0.57,0.21,0.86,0.3c0.1,0.04,0.2,0.07,0.31,0.11
			c9.15,2.97,19.18,1.66,28.16-4.12c0.03-0.02,0.07-0.04,0.1-0.06c0.04-0.02,0.07-0.04,0.1-0.07c2.33-1.51,4.58-3.33,6.73-5.45
			c0.55-0.54,1.02-1.16,1.47-1.81c0.01-0.01,0.02-0.02,0.02-0.02c0.51-0.74,1.01-1.53,1.58-2.31c5,3.17,9.14,5.79,13.49,8.55
			c-0.04,0.05-0.09,0.11-0.13,0.16c-3.38,4.18-6.9,8.08-10.72,11.44l-0.03,0.03c-0.25,0.22-0.5,0.43-0.75,0.64
			c-3.13,2.67-6.46,4.98-10.08,6.78c-0.01,0.01-0.03,0.01-0.04,0.02c-3.72,1.85-7.74,3.16-12.15,3.79
			c-11.32,1.63-21.18-0.59-29.69-5.65c-6.48-3.83-12.19-9.32-17.17-15.99c-11.2-14.98-11.74-32.4-8.9-50.14
			c0.3-1.88,0.76-3.74,1.36-6.53c0.01-0.08,0.03-0.16,0.05-0.25c4.3,2.72,8.24,4.98,11.81,7.69c0.02,0.02,0.04,0.03,0.06,0.05
			C198.89,323.21,198.97,324.91,198.83,326.29z M215.55,333.37c10.61,6.7,20.71,13.07,30.84,19.46c-5.75,6.99-12.18,8.93-19.05,5.94
			C217.67,354.55,213.77,346.45,215.55,333.37z M425.14,531.41c-1.59-0.98-3.14-2-4.649-3.061c0-0.01-0.01-0.01-0.01-0.01
			c-10.98-7.74-19.881-17.77-27.57-28.58c-14.83-20.859-28.55-42.5-42.65-63.859c-0.859-1.301-1.64-3.2-1.38-4.62
			c2.68-14.311,1.271-28.4-1.68-42.46c-0.09-0.08-0.061-0.26-0.03-0.13c0.01,0.04,0.021,0.09,0.03,0.13
			c0.109,0.11,0.39,0.09,1.05-0.74c0.67,0.92,1.35,1.52,2.05,2.09c0.01,0.01,0.021,0.02,0.03,0.03c0.01,0.01,0.02,0.02,0.03,0.03
			c0.689,0.54,1.409,1.05,2.199,1.81c14.4,13.78,31.131,21.46,51.5,18.53c0.851-0.12,1.61-0.16,2.29-0.11c0.011,0,0.011,0,0.021,0
			c0.59,0.04,1.13,0.15,1.62,0.31c0.819,0.271,1.54,0.69,2.2,1.28c0.22,0.19,0.42,0.391,0.63,0.62l0.01,0.01
			c0.54,0.59,1.06,1.29,1.57,2.101c0.159,0.26,0.33,0.52,0.5,0.77c0.01,0.021,0.029,0.04,0.04,0.061
			c11.51,18,24.409,34.899,40.68,48.989c9.13,7.9,19.189,14.021,31.29,17.08h0.01c0.18,0.051,0.36,0.101,0.55,0.141
			c0.061,0.02,0.12,0.04,0.181,0.05c-9.721,17.51-21.92,32.479-37.03,45.07c-1.28,1.069-2.59,2.1-3.88,3.149
			C436.81,536.54,433.96,536.82,425.14,531.41z M432.99,217.96c0.77-0.27,1.54-0.54,2.31-0.82c0.771-0.28,1.54-0.55,2.32-0.83
			c0.78-0.27,1.56-0.55,2.35-0.83c1.15,10.61,2.24,20.7,3.45,31.91c-7.53-3.98-13.66-7.5-20.03-10.5
			c-6.199-2.91-12.63-5.3-19.949-8.33c-0.04-0.02-0.08-0.03-0.12-0.05C413.45,224.91,423.02,221.51,432.99,217.96z M345.74,253.72
			c0.66-0.27,1.319-0.53,1.99-0.78c0.369-0.14,0.739-0.28,1.119-0.42c0.681-0.25,1.381-0.5,2.07-0.74c0.34-0.13,0.69-0.24,1.03-0.36
			c0.069-0.02,0.149-0.05,0.22-0.07c4.23-1.43,8.61-2.65,13.07-3.63c4.91-1.08,9.91-1.83,14.91-2.46c0.029,0,0.06-0.01,0.09-0.01
			c0.899-0.11,1.81-0.22,2.72-0.33c2.771-0.33,5.51-0.44,8.24-0.27h0.1c1.7,0.11,3.4,0.32,5.101,0.65c0.01,0,0.01,0,0.02,0
			c2.05,0.4,4.11,0.97,6.16,1.74c12.99,4.86,25.3,10.9,37.15,19.54c-0.061,0.04-0.11,0.07-0.171,0.1
			c-22.729,14.14-45.079,28.03-66.52,41.35c-5.47-6.08-10.92-12.12-16.33-18.14c-0.04-0.04-0.07-0.08-0.11-0.12
			c-3.52-3.92-7.029-7.81-10.529-11.72c-0.03-0.02-0.051-0.05-0.07-0.07c-5.07-5.63-10.14-11.26-15.21-16.9
			c4.12-2.47,8.56-4.69,13.229-6.65C344.59,254.19,345.16,253.95,345.74,253.72z M227.29,246.83c5.73-1.39,11.5-1.95,17.32-1.8h0.1
			c10.1,0.25,20.32,2.58,30.61,6.31c2.21,0.8,4.39,1.67,6.55,2.57c0.3,0.12,0.6,0.24,0.9,0.37c0.39,0.16,0.77,0.32,1.15,0.48
			c0.51,0.22,1.02,0.44,1.52,0.66c0.11,0.05,0.21,0.09,0.32,0.14c4.05,1.76,7.99,3.55,11.78,5.17c-0.15,0.16-0.3,0.33-0.44,0.49
			c-3.11,3.41-6.19,6.78-9.25,10.15c-0.01,0.01-0.02,0.03-0.03,0.04c-7.36,8.08-14.64,16.08-22.01,24.16
			c-0.01,0.02-0.03,0.04-0.05,0.06c-3.17,3.49-6.36,7-9.58,10.53c-21.12-13.14-42.85-26.63-65.53-40.73c-0.01,0-0.01-0.01-0.02-0.01
			c0.09-0.05,0.18-0.11,0.26-0.16c0.02-0.01,0.03-0.02,0.05-0.03c5.8-3.47,10.97-6.39,15.98-9.59c0.3-0.19,0.61-0.39,0.91-0.57h0.01
			c6.4-3.97,12.88-6.65,19.43-8.24C227.28,246.83,227.28,246.83,227.29,246.83z M184.79,215.46c13.49,4.78,25.88,9.17,38.16,13.52
			c-0.07,0.03-0.14,0.07-0.21,0.1c-5.01,2.47-10,4.93-15.02,7.41c-1.03,0.5-2.05,1.01-3.09,1.52c-7.49,3.7-15.11,7.46-23.09,11.39
			c1.07-11.15,2.12-22.19,3.25-33.92C184.79,215.47,184.79,215.47,184.79,215.46z M112.68,237.25c11.15,6.91,22.15,13.7,33.12,20.52
			c51.05,31.72,102.09,63.45,153.14,95.17c2,1.25,3.52,2.22,4.63,3.18c0.01,0,0.02,0.01,0.03,0.02c0.01,0,0.02,0.01,0.03,0.02
			c1.03,0.88,1.71,1.74,2.11,2.77c0.69,1.75,0.58,3.99,0.03,7.65c-0.14,0.9-0.3,1.88-0.49,2.96c-4.68-2.89-9.18-5.6-13.62-8.4
			c-57.88-36.5-115.75-73.02-173.63-109.53c-6.62-4.17-7.14-5.28-5.4-14.11C112.65,237.42,112.66,237.33,112.68,237.25z
			 M358.98,561.44c-0.051,0-0.091,0.01-0.141,0.01c-6.3,0.41-12.43,0.479-18.07,0.149h-0.039c-3.69-0.21-7.16-0.6-10.33-1.159
			c22.229-23.48,26.869-51.94,23.77-83.54c1.63,2.18,3.25,4.34,4.83,6.479c0.01,0.01,0.01,0.021,0.02,0.03
			c8.211,11.03,15.931,21.55,23.99,31.8c9.59,12.18,20.49,23.12,33.76,31.73c-0.039,0.02-0.079,0.05-0.119,0.069h-0.011
			c-12.159,7.48-35.81,12.98-57.529,14.431H358.98z M496.3,341.58c0.75,2.07,1.46,4.17,2.12,6.28c2.45,7.8,4.34,15.58,5.69,23.36
			v0.01c1.979,11.33,2.8,22.64,2.449,33.93v0.05c-0.529,17.84-3.93,35.63-10.189,53.36c-0.55,1.569-1.05,2.85-1.59,3.85
			c-0.011,0.03-0.021,0.061-0.04,0.09c-1.75,3.29-3.78,3.431-8.91,1.19c-6.92-3.03-13.9-6.641-19.7-11.41
			c-5.71-4.7-10.939-9.82-15.81-15.28c-8.99-10.04-16.801-21.22-24.261-32.979c1.391-1.011,2.62-2,3.96-2.84
			c28-17.51,36.69-43.76,33.811-75.11c-0.53-5.77-2.1-11.43-2.84-17.19c-0.17-1.38,0.649-3.46,1.729-4.31
			c2.79-2.23,5.95-3.97,9.471-6.2c0.069-0.05,0.14-0.09,0.21-0.14C482.75,311.76,490.71,326.09,496.3,341.58z"/>
		<path fill-rule="evenodd" clip-rule="evenodd" fill="#FFFFFF" d="M405.72,357.3c-7.38,4.75-13.689,3.83-21.45-3.45
			c10.19-6.44,19.971-12.61,29.83-18.84C416.88,342.93,413.12,352.55,405.72,357.3z"/>
		<path fill-rule="evenodd" clip-rule="evenodd" fill="#FFFFFF" d="M246.39,352.83c-5.75,6.99-12.18,8.93-19.05,5.94
			c-9.67-4.22-13.57-12.32-11.79-25.4C226.16,340.07,236.26,346.44,246.39,352.83z"/>
	</g>
</g>
</svg>
