<?xml version="1.0" encoding="utf-8"?>
<!-- Generator: Adobe Illustrator 16.0.3, SVG Export Plug-In . SVG Version: 6.00 Build 0)  -->
<!DOCTYPE svg PUBLIC "-//W3C//DTD SVG 1.1//EN" "http://www.w3.org/Graphics/SVG/1.1/DTD/svg11.dtd">
<svg version="1.1" id="Layer_1" xmlns="http://www.w3.org/2000/svg" xmlns:xlink="http://www.w3.org/1999/xlink" x="0px" y="0px"
	 width="612px" height="792px" viewBox="0 0 612 792" enable-background="new 0 0 612 792" xml:space="preserve">
<g>
	<g>
		<path fill="#5A5A5A" d="M211.132,376.567c4.085-0.928,8.284-1.393,12.595-1.393c3.269,0,6.277,0.373,9.026,1.115
			c2.749,0.744,5.127,1.933,7.134,3.566c2.748-1.337,5.869-2.452,9.362-3.344c3.491-0.891,6.909-1.337,10.254-1.337
			c2.971,0,5.74,0.317,8.303,0.947c2.563,0.633,4.773,1.691,6.632,3.177c1.855,1.487,3.324,3.438,4.402,5.852
			c1.076,2.415,1.615,5.405,1.615,8.972v35.888h-11.256v-35.443c0-2.154-0.298-3.918-0.892-5.294
			c-0.596-1.374-1.394-2.469-2.396-3.288c-1.003-0.817-2.212-1.394-3.622-1.728c-1.412-0.334-2.898-0.501-4.459-0.501
			c-2.601,0-4.96,0.334-7.077,1.003c-2.117,0.668-4.031,1.375-5.739,2.117c0.742,2.006,1.114,4.422,1.114,7.245v35.888h-11.257
			v-35.443c0-2.154-0.297-3.918-0.891-5.294c-0.596-1.374-1.394-2.469-2.397-3.288c-1.003-0.817-2.192-1.394-3.566-1.728
			c-1.376-0.334-2.88-0.501-4.514-0.501c-1.933,0-3.938,0.167-6.019,0.501s-3.938,0.725-5.572,1.17v44.582h-11.257v-50.712
			C203.553,378.406,207.045,377.497,211.132,376.567z"/>
		<path fill="#5A5A5A" d="M311.217,356.227c0,2.006-0.613,3.567-1.839,4.682c-1.227,1.114-2.992,1.671-5.295,1.671
			c-2.229,0-3.976-0.557-5.238-1.671c-1.265-1.115-1.895-2.675-1.895-4.682c0-2.079,0.63-3.677,1.895-4.792
			c1.263-1.114,3.009-1.672,5.238-1.672C308.838,349.763,311.217,351.918,311.217,356.227z M309.768,376.289v53.721h-11.257v-53.721
			H309.768z"/>
		<path fill="#5A5A5A" d="M333.673,377.905c1.821-0.482,3.771-0.928,5.853-1.338c2.079-0.407,4.253-0.742,6.521-1.003
			c2.265-0.26,4.513-0.39,6.742-0.39c3.343,0,6.445,0.317,9.307,0.947c2.859,0.633,5.349,1.672,7.468,3.121
			c2.117,1.449,3.77,3.399,4.959,5.851c1.188,2.453,1.783,5.461,1.783,9.028v35.888h-11.257v-35.443
			c0-2.079-0.317-3.826-0.947-5.238c-0.632-1.411-1.504-2.525-2.619-3.344c-1.114-0.817-2.452-1.394-4.012-1.728
			c-1.561-0.334-3.232-0.501-5.017-0.501c-2.08,0-4.234,0.167-6.464,0.501s-4.198,0.725-5.907,1.17v44.582h-11.256v-50.712
			C330.236,378.852,331.853,378.389,333.673,377.905z"/>
		<path fill="#5A5A5A" d="M402.049,406.381c0.073,2.676,0.407,5.035,1.003,7.078c0.594,2.044,1.561,3.733,2.897,5.07
			c1.339,1.338,3.121,2.341,5.351,3.01c2.229,0.668,5.052,1.002,8.471,1.002c1.188,0,2.488-0.055,3.9-0.166
			c1.411-0.111,2.804-0.279,4.18-0.502c1.374-0.223,2.675-0.445,3.901-0.668c1.226-0.224,2.246-0.446,3.064-0.67l1.003,8.248
			c-2.156,0.596-4.775,1.134-7.857,1.616c-3.084,0.482-6.224,0.725-9.418,0.725c-4.235,0-8.1-0.409-11.59-1.227
			c-3.49-0.816-6.451-2.284-8.879-4.402c-2.43-2.117-4.324-4.978-5.687-8.582c-1.361-3.603-2.042-8.191-2.042-13.765
			c0-5.199,0.575-9.584,1.728-13.151c1.151-3.567,2.804-6.445,4.96-8.638c2.153-2.191,4.772-3.771,7.856-4.737
			c3.082-0.965,6.521-1.449,10.31-1.449c3.79,0,7.059,0.54,9.808,1.617c2.749,1.078,5.033,2.583,6.855,4.513
			c1.819,1.934,3.157,4.273,4.012,7.022c0.854,2.75,1.282,5.834,1.282,9.25v8.805H402.049z M426.346,398.579
			c0-10.327-3.846-15.492-11.534-15.492c-4.254,0-7.352,1.301-9.292,3.901c-1.941,2.602-3.061,6.464-3.358,11.591H426.346z"/>
		<path fill="#5A5A5A" d="M451.868,379.298c4.605-1.411,9.23-2.433,13.876-3.065c4.642-0.63,9.752-0.947,15.324-0.947v8.917
			c-0.819-0.074-1.672-0.112-2.563-0.112s-1.783,0-2.675,0c-2.379,0-4.681,0.15-6.91,0.446c-2.229,0.297-4.161,0.668-5.795,1.114
			v44.359h-11.257V379.298z"/>
		<path fill="#5A5A5A" d="M484.076,376.289h11.703l16.272,44.135c2.747-5.646,5.553-12.092,8.414-19.336
			c2.859-7.246,5.033-15.511,6.521-24.799h10.254c-1.413,10.031-3.865,19.412-7.357,28.141c-3.492,8.732-7.652,17.259-12.481,25.58
			h-12.595L484.076,376.289z"/>
		<path fill="#5A5A5A" d="M548.051,377.069c2.377-0.519,4.996-0.965,7.857-1.337c2.859-0.371,5.665-0.558,8.415-0.558
			c3.121,0,6.11,0.279,8.972,0.836c2.859,0.557,5.35,1.524,7.468,2.897c2.117,1.376,3.806,3.176,5.071,5.405
			c1.262,2.229,1.895,5.016,1.895,8.359v34.662c-2.825,0.818-6.225,1.655-10.199,2.508c-3.976,0.854-8.229,1.282-12.761,1.282
			c-3.121,0-6.019-0.298-8.693-0.892s-4.997-1.578-6.966-2.954c-1.97-1.374-3.511-3.177-4.625-5.405
			c-1.115-2.229-1.672-5.016-1.672-8.359c0-3.121,0.613-5.721,1.839-7.801s2.843-3.752,4.849-5.016
			c2.006-1.263,4.346-2.154,7.021-2.676c2.676-0.519,5.462-0.779,8.359-0.779c2.377,0,4.514,0.094,6.409,0.278
			c1.895,0.187,3.621,0.429,5.182,0.724v-5.237c0-3.715-1.209-6.223-3.621-7.523c-2.416-1.299-5.444-1.951-9.084-1.951
			c-2.527,0-5.126,0.224-7.802,0.669c-2.675,0.445-5.054,0.891-7.133,1.337L548.051,377.069z M576.471,406.381
			c-1.561-0.296-3.27-0.538-5.127-0.725c-1.857-0.185-3.752-0.278-5.684-0.278c-1.635,0-3.176,0.112-4.625,0.335
			s-2.713,0.65-3.789,1.281c-1.078,0.633-1.934,1.523-2.564,2.675c-0.632,1.153-0.947,2.657-0.947,4.514
			c0,3.419,1.096,5.778,3.288,7.077c2.19,1.301,4.849,1.951,7.969,1.951c2.229,0,4.328-0.148,6.298-0.445
			c1.967-0.297,3.694-0.631,5.182-1.004V406.381z"/>
	</g>
	<g>
		<g>
			<path fill-rule="evenodd" clip-rule="evenodd" fill="#96BEE5" d="M165.748,356.605c0.018,0.283-0.104,0.434-0.326,0.574
				c-1.576,0.982-3.15,1.974-4.724,2.968c-2.581,1.625-5.159,3.255-7.739,4.882c-3.328,2.099-6.658,4.199-9.984,6.294
				c-2.457,1.548-4.914,3.096-7.369,4.644c-2.591,1.633-5.179,3.266-7.77,4.899c-2.454,1.551-4.911,3.095-7.369,4.645
				c-2.588,1.633-5.178,3.269-7.767,4.902c-0.527,0.332-1.056,0.661-1.587,0.988c-0.15,0.094-0.315,0.168-0.531,0.279v-1.847
				c0-0.478,0.021-0.957-0.006-1.432c-0.015-0.292,0.1-0.454,0.336-0.599c1.17-0.716,2.335-1.446,3.499-2.17
				c1.664-1.034,3.332-2.068,5-3.104c3.021-1.878,6.045-3.76,9.069-5.638c2.612-1.622,5.225-3.238,7.836-4.857
				c3.004-1.865,6.008-3.735,9.014-5.601c3.005-1.867,6.011-3.732,9.016-5.601c3.006-1.866,6.009-3.732,9.017-5.598
				c0.673-0.417,1.353-0.83,2.028-1.241c0.089-0.054,0.183-0.092,0.35-0.177v1.46C165.74,355.72,165.72,356.165,165.748,356.605z"/>
			<path fill-rule="evenodd" clip-rule="evenodd" fill="#96BEE5" d="M104.934,391.727c-0.521-0.318-0.965-0.583-1.402-0.858
				c-1.39-0.869-2.778-1.741-4.164-2.62c-1.253-0.792-2.496-1.593-3.752-2.383c-1.358-0.858-2.722-1.705-4.082-2.56
				c-1.463-0.923-2.92-1.852-4.385-2.775c-1.492-0.941-2.988-1.876-4.48-2.815c-1.57-0.992-3.136-1.986-4.703-2.978
				c-1.387-0.875-2.778-1.741-4.164-2.616c-1.099-0.696-2.192-1.401-3.292-2.094c-1.321-0.833-2.647-1.654-3.968-2.483
				c-1.228-0.772-2.446-1.553-3.67-2.326c-1.386-0.875-2.775-1.749-4.162-2.623c-1.11-0.699-2.215-1.409-3.326-2.105
				c-1.357-0.855-2.724-1.703-4.084-2.554c-0.449-0.285-0.906-0.558-1.341-0.864c-0.104-0.077-0.176-0.264-0.182-0.403
				c-0.017-0.645,0.001-1.295-0.012-1.94c-0.005-0.235-0.059-0.468-0.081-0.701c-0.009-0.074,0.011-0.15,0.018-0.225
				c0.081,0.011,0.175,0,0.24,0.04c0.679,0.41,1.353,0.824,2.025,1.241c1.113,0.688,2.229,1.378,3.343,2.071
				c1.573,0.98,3.145,1.969,4.718,2.947c1.432,0.888,2.869,1.766,4.3,2.656c1.566,0.974,3.126,1.954,4.69,2.929
				c1.076,0.667,2.158,1.321,3.235,1.989c1.323,0.827,2.645,1.662,3.968,2.486c1.449,0.903,2.906,1.795,4.354,2.698
				c1.202,0.744,2.394,1.503,3.597,2.248c1.42,0.883,2.848,1.756,4.269,2.635c1.576,0.981,3.145,1.972,4.718,2.95
				c1.464,0.902,2.931,1.792,4.392,2.698c1.192,0.738,2.371,1.498,3.563,2.242c1.189,0.742,2.386,1.469,3.573,2.216
				c0.106,0.067,0.237,0.213,0.237,0.323C104.94,389.32,104.935,390.468,104.934,391.727z"/>
			<path fill-rule="evenodd" clip-rule="evenodd" fill="#9783BD" d="M96.078,391.814c-0.549,0.622-1.055,1.232-1.597,1.803
				c-1.449,1.526-3.08,2.821-4.983,3.741c-2.892,1.4-5.872,1.6-8.889,0.491c-3.774-1.387-6.788-3.71-8.693-7.327
				c-1.009-1.915-1.534-3.974-1.734-6.116c-0.26-2.784,0.002-5.531,0.622-8.25c0.015-0.068,0.04-0.13,0.069-0.213
				c0.056,0.023,0.106,0.04,0.151,0.065c1.171,0.739,2.339,1.481,3.518,2.211c0.185,0.116,0.189,0.223,0.139,0.414
				c-0.546,2.114-0.708,4.244-0.354,6.411c0.736,4.48,4.565,8.161,9.064,8.631c2.591,0.272,4.856-0.582,6.831-2.22
				c0.73-0.605,1.379-1.313,2.103-2.009C93.532,390.209,94.777,390.992,96.078,391.814z"/>
			<path fill-rule="evenodd" clip-rule="evenodd" fill="#9783BD" d="M144.834,385.12c-0.711,5.136-3.279,9.008-7.827,11.539
				c-1.774,0.988-3.647,1.674-5.689,1.811c-3.011,0.198-5.639-0.815-8.036-2.552c-1.475-1.067-2.746-2.341-3.896-3.741
				c-0.05-0.063-0.092-0.128-0.157-0.222c1.224-0.772,2.411-1.522,3.56-2.247c0.675,0.628,1.298,1.279,1.991,1.842
				c1.676,1.363,3.593,2.162,5.78,2.179c1.939,0.015,3.701-0.604,5.317-1.647c2.86-1.846,4.423-4.492,4.793-7.851
				c0.196-1.767,0.045-3.513-0.367-5.238c-0.038-0.164-0.073-0.289,0.111-0.404c1.273-0.792,2.537-1.593,3.805-2.391
				c0.028-0.017,0.062-0.021,0.146-0.045c0.151,0.881,0.323,1.747,0.44,2.619C145.084,380.885,145.127,383.001,144.834,385.12z"/>
			<path fill-rule="evenodd" clip-rule="evenodd" fill="#71CFEF" d="M102.878,360.901c-4.58,3.697-8.426,8.038-11.768,12.878
				c-6.345-3.94-12.665-7.867-19.027-11.818c1.511-1.071,3.052-2.006,4.647-2.85c2.387-1.258,4.878-2.254,7.453-3.041
				c0.62-0.191,1.236-0.133,1.856-0.105c5.89,0.247,11.39,1.864,16.525,4.745C102.654,360.762,102.738,360.815,102.878,360.901z"/>
			<path fill-rule="evenodd" clip-rule="evenodd" fill="#71CFEF" d="M142.986,362.253c-6.479,4.022-12.942,8.035-19.439,12.068
				c-3.413-5.04-7.37-9.571-12.139-13.426c2.091-1.196,4.207-2.173,6.42-2.943c3.838-1.339,7.791-2.01,11.854-2.007
				c0.483,0.004,0.975,0.186,1.446,0.333c4.227,1.322,8.126,3.293,11.728,5.861C142.893,362.165,142.924,362.199,142.986,362.253z"
				/>
			<path fill-rule="evenodd" clip-rule="evenodd" fill="#96BEE5" d="M112.608,404.484c-0.011,1.812-0.219,3.596-0.745,5.338
				c-0.701,2.309-1.911,4.294-3.704,5.921c-0.23,0.208-0.369,0.188-0.585-0.008c-2.116-1.921-3.382-4.315-3.999-7.082
				c-0.454-2.037-0.491-4.09-0.372-6.161c0.104-1.759,0.361-4.096,0.799-5.797c0.031-0.12,0.413,0.188,0.473,0.003
				c1.025,0.614,0.84,0.902,1.789,1.518c0.383,0.25,1.77,0.238,2.143,0c1.014-0.641,1.819-0.786,2.849-1.402
				c0.064-0.039,0.14-0.063,0.271-0.119c0.094,0.344,0.196,0.662,0.273,0.982C112.328,399.916,112.623,402.184,112.608,404.484z"/>
			<path fill-rule="evenodd" clip-rule="evenodd" fill="#96BEE5" d="M113.989,427.129c-0.07,3.576-0.65,7.045-2.229,10.297
				c-1.029,2.12-2.413,3.972-4.177,5.537c-0.049,0.045-0.104,0.082-0.168,0.129c-1.162-0.996-2.155-2.124-3.008-3.379
				c-1.675-2.467-2.655-5.202-3.148-8.123c-0.708-4.213-0.421-8.393,0.367-12.561c0.125-0.659,0.281-1.31,0.42-1.962
				c0.012-0.046,0.03-0.087,0.061-0.188c1.585,2.069,3.521,3.685,5.765,4.948c1.891-1.064,3.595-2.4,5.1-4.127
				c0.193,1.065,0.392,2.037,0.546,3.018C113.85,422.84,114.029,424.979,113.989,427.129z"/>
			<path fill-rule="evenodd" clip-rule="evenodd" fill="#9783BD" d="M103.396,445.836c-0.03,0.049-0.062,0.095-0.097,0.141h-0.32
				c-2.625-0.001-5.25,0.029-7.874-0.007c-5.835-0.087-11.399-1.368-16.686-3.845c-0.07-0.034-0.139-0.074-0.25-0.128
				c0.201-0.122,0.381-0.228,0.561-0.336c1.744-1.064,3.309-2.356,4.774-3.774c3.674-3.551,6.775-7.578,9.714-11.74
				c0.988-1.399,1.929-2.834,2.892-4.251c0.057-0.083,0.117-0.162,0.14-0.19c-0.068,1.83-0.212,3.699-0.194,5.567
				c0.037,4.411,0.866,8.661,2.868,12.633c1.073,2.128,2.457,4.027,4.13,5.721C103.146,445.717,103.282,445.768,103.396,445.836z"/>
			<path fill-rule="evenodd" clip-rule="evenodd" fill="#9783BD" d="M136.613,441.965c-0.548,0.247-1.093,0.508-1.646,0.744
				c-3.699,1.574-7.54,2.619-11.545,3.01c-1.477,0.145-2.963,0.221-4.448,0.246c-2.353,0.041-4.704,0.012-7.056,0.012h-0.447
				c0.199-0.213,0.35-0.383,0.509-0.546c3.202-3.294,5.134-7.249,6.108-11.7c0.558-2.53,0.779-5.096,0.711-7.678
				c-0.036-1.428-0.184-2.852-0.28-4.277c-0.003-0.077,0-0.15,0-0.293c0.1,0.137,0.165,0.223,0.224,0.313
				c2.734,4.155,5.604,8.215,8.84,12.001c2.084,2.438,4.285,4.762,6.868,6.686C135.14,440.996,135.869,441.456,136.613,441.965z"/>
			<path fill-rule="evenodd" clip-rule="evenodd" fill="#6CCBDA" d="M119.409,376.883c-0.126,0.083-0.256,0.167-0.387,0.25
				c-3.633,2.255-7.267,4.51-10.897,6.773c-0.265,0.168-0.452,0.171-0.721,0.003c-3.945-2.463-7.897-4.914-11.851-7.369
				c-0.094-0.059-0.19-0.12-0.333-0.21c3.344-4.814,7.23-9.089,11.909-12.611C110.438,365.798,117.662,373.536,119.409,376.883z"/>
			<path fill-rule="evenodd" clip-rule="evenodd" fill="#6CCBDA" d="M158.409,418.358c-0.1,0.247-0.225,0.315-0.472,0.311
				c-1.603-0.035-3.037-0.601-4.409-1.364c-1.928-1.077-3.609-2.478-5.181-4.018c-3.652-3.581-6.662-7.67-9.409-11.969
				c-0.032-0.045-0.048-0.099-0.052-0.099c1.038-0.687,2.096-1.312,3.074-2.045c3.931-2.957,6.343-6.893,7.355-11.691
				c0.967-4.596,0.591-9.141-0.578-13.652c-0.034-0.131-0.065-0.261-0.105-0.418c1.17-0.738,2.34-1.477,3.542-2.234
				c0.07,0.087,0.146,0.17,0.21,0.255c4.423,5.875,7.294,12.434,8.674,19.654c0.52,2.725,0.795,5.478,0.84,8.252
				C162.012,405.914,160.864,412.254,158.409,418.358z"/>
			<path fill-rule="evenodd" clip-rule="evenodd" fill="#6CCBDA" d="M76.102,401.141c-0.27,0.417-0.525,0.824-0.792,1.227
				c-2.299,3.497-4.793,6.846-7.696,9.869c-1.943,2.021-4.017,3.887-6.514,5.219c-1.364,0.729-2.796,1.244-4.381,1.198
				c-0.264-0.006-0.369-0.107-0.46-0.335c-1.594-3.982-2.661-8.099-3.144-12.362c-1.093-9.632,0.451-18.81,4.795-27.497
				c1.31-2.613,2.873-5.072,4.664-7.385c0.063-0.079,0.131-0.155,0.217-0.255c0.761,0.48,1.519,0.957,2.275,1.432
				c0.423,0.268,0.837,0.545,1.27,0.795c0.208,0.12,0.238,0.234,0.174,0.462c-0.734,2.566-1.154,5.182-1.237,7.849
				c-0.113,3.642,0.402,7.175,1.931,10.516c1.798,3.938,4.678,6.872,8.418,8.995C75.77,400.95,75.917,401.035,76.102,401.141z"/>
			<path fill-rule="evenodd" clip-rule="evenodd" fill="#71CFEF" d="M156.039,423.342c-0.302,0.52-0.579,1.021-0.875,1.513
				c-1.844,3.058-4,5.872-6.499,8.421c-1.788,1.822-3.723,3.463-5.772,4.978c-0.486,0.357-0.981,0.4-1.518,0.335
				c-0.932-0.116-1.762-0.509-2.557-0.98c-1.954-1.156-3.604-2.682-5.164-4.307c-4.073-4.232-7.489-8.977-10.676-13.889
				c-2.045-3.15-3.951-6.389-5.908-9.596c-0.094-0.153-0.122-0.389-0.088-0.568c0.473-2.485,0.535-4.982,0.324-7.496
				c-0.144-1.756-0.508-3.474-0.868-5.192c-0.026-0.119-0.039-0.245-0.06-0.363c0.025-0.021,0.051-0.037,0.08-0.055
				c0.57,0.582,1.141,1.165,1.712,1.745c1.517,1.547,3.278,2.76,5.215,3.721c2.539,1.26,5.232,1.855,8.07,1.686
				c0.923-0.057,1.841-0.222,2.78-0.338c0.693,1.059,1.392,2.159,2.122,3.238c2.517,3.711,5.251,7.247,8.456,10.395
				c2.188,2.15,4.547,4.08,7.324,5.438c1.19,0.58,2.423,1.021,3.727,1.264C155.906,423.298,155.948,423.313,156.039,423.342z"/>
			<path fill-rule="evenodd" clip-rule="evenodd" fill="#71CFEF" d="M99.11,397.345c-0.71,3.292-1.037,6.62-0.613,9.977
				c0.107,0.878-0.071,1.556-0.501,2.292c-3.631,6.248-7.486,12.348-11.911,18.068c-2.104,2.715-4.325,5.327-6.898,7.617
				c-1.232,1.096-2.528,2.113-4.046,2.801c-0.727,0.329-1.474,0.588-2.301,0.488c-0.074-0.009-0.161,0.096-0.289,0.176
				c-2.859-1.949-5.475-4.25-7.821-6.857c-2.342-2.6-4.353-5.436-6.011-8.443c1.171-0.396,2.346-0.712,3.457-1.182
				c2.474-1.045,4.596-2.645,6.579-4.43c3.369-3.034,6.213-6.527,8.81-10.223c1.025-1.461,1.978-2.969,2.961-4.454
				c0.094-0.142,0.149-0.27,0.386-0.217c5.112,1.144,9.681-0.137,13.843-3.163c1.729-1.254,3.237-2.74,4.595-4.388
				c0.078-0.091,0.155-0.182,0.279-0.241C99.455,395.89,99.27,396.615,99.11,397.345z"/>
			<path fill-rule="evenodd" clip-rule="evenodd" fill="#94BEE6" d="M113.289,354.447c-2.017,1.077-4.094,2.188-6.145,3.28
				c-2.033-1.088-4.116-2.201-6.139-3.281L113.289,354.447z"/>
			<path fill-rule="evenodd" clip-rule="evenodd" fill="#2FBEBC" d="M76.117,401.18c-0.27,0.418-0.541,1.068-0.808,1.473
				c-2.299,3.496-4.793,6.844-7.696,9.866c-1.943,2.022-4.017,3.889-6.514,5.221c-1.364,0.728-2.796,1.244-4.381,1.198
				c-0.054,0-0.1-0.005-0.142-0.017c-0.11-0.097-0.219-0.205-0.318-0.318c-0.21-0.525-0.411-1.057-0.604-1.589
				c-7.469-13.469,10.902-43.909,10.902-43.909l-0.02,0.53c0,0.044-0.012,0.099-0.027,0.159c-0.734,2.565-1.154,5.181-1.237,7.848
				c-0.113,3.642,0.606,7.296,2.134,10.637c1.798,3.936,4.26,6.257,8,8.379C75.555,400.74,75.933,401.074,76.117,401.18z"/>
			<path fill-rule="evenodd" clip-rule="evenodd" fill="#6CCBDA" d="M23.898,394.737"/>
			<path fill-rule="evenodd" clip-rule="evenodd" fill="#2FBEBC" d="M162.048,402.607c-0.239,5.479-1.381,10.794-3.449,15.941
				c-0.101,0.246-0.225,0.314-0.473,0.309c-1.602-0.034-3.036-0.6-4.408-1.363c-1.929-1.077-3.609-2.478-5.181-4.018
				c-0.9-0.883-1.764-1.797-2.59-2.738c2.866-8.898,10.06-21.922,13.126-27.279c0.917,2.463,1.629,5.016,2.144,7.658
				L162.048,402.607z"/>
			<path fill-rule="evenodd" clip-rule="evenodd" fill="#66459B" d="M96.078,391.814c-0.549,0.622-1.055,1.233-1.597,1.803
				c-1.449,1.526-3.08,2.821-4.983,3.741c-2.892,1.4-5.872,1.6-8.889,0.491c-0.92-0.338-1.794-0.729-2.619-1.188
				c0.783-1.142,1.867-2.325,3.137-3.507c0.728,0.264,1.486,0.44,2.265,0.523c2.591,0.272,4.856-0.582,6.831-2.22
				c0.73-0.605,1.379-1.313,2.103-2.009C93.532,390.209,94.777,390.992,96.078,391.814z"/>
			<path fill-rule="evenodd" clip-rule="evenodd" fill="#5C83C2" d="M114.273,426.844c-0.071,3.577-0.65,7.046-2.229,10.299
				c-1.028,2.118-2.413,3.971-4.177,5.535c-2.806-11.434,2.239-13.848,2.523-16.688c0.285-2.84-2.234-4.446-2.234-4.446
				c1.889-1.064,3.593-2.399,5.1-4.126c0.191,1.064,0.391,2.036,0.545,3.016C114.133,422.556,114.314,424.695,114.273,426.844z"/>
		</g>
		<path fill-rule="evenodd" clip-rule="evenodd" fill="#3FBBEC" d="M156.43,423.197c-0.303,0.53-0.582,1.042-0.879,1.543
			c-1.854,3.114-4.021,5.984-6.533,8.582c-1.794,1.856-3.738,3.529-5.801,5.072c-0.488,0.365-0.984,0.408-1.523,0.342
			c-0.677-0.086-1.299-0.318-1.893-0.623c-0.194-0.115-0.42-0.24-0.677-0.376c-0.305-0.183-0.605-0.376-0.896-0.579
			c-0.006-0.003-0.012-0.006-0.018-0.012c-6.345-4.95-12.806-28.098-3.957-34.211c2.35,3.434,7.946,10.443,10.895,13.379
			c2.201,2.191,4.57,4.158,7.361,5.542c1.196,0.591,2.435,1.039,3.746,1.289C156.295,423.154,156.338,423.168,156.43,423.197z"/>
		<path fill-rule="evenodd" clip-rule="evenodd" fill="#3FBBEC" d="M99.129,397.354c-0.71,3.296-1.037,6.631-0.613,9.991
			c0.107,0.879-0.072,1.559-0.501,2.296c-3.63,6.26-7.485,12.368-11.911,18.098c-2.104,2.719-4.324,5.336-6.898,7.63
			c-0.906,0.809-1.85,1.573-2.886,2.193c-0.373,0.226-0.759,0.429-1.159,0.612c-0.728,0.33-1.687,0.767-2.515,0.667
			c-0.074-0.009,0.052-0.081-0.077-0.003c-6.154-4.99,3.119-26.023,7.147-34.386c0.275-0.421,0.552-0.842,0.827-1.259
			c0.094-0.144,0.151-0.271,0.386-0.218c0.148,0.035,0.294,0.063,0.438,0.092c4.937,0.979,9.362-0.315,13.404-3.259
			c1.73-1.259,3.239-2.746,4.597-4.396c0.076-0.091,0.154-0.183,0.278-0.242C99.474,395.896,99.289,396.622,99.129,397.354z"/>
		<path fill-rule="evenodd" clip-rule="evenodd" fill="#66459B" d="M144.834,385.12c-0.711,5.136-3.279,9.008-7.828,11.539
			c-1.258,0.701-2.564,1.25-3.947,1.558c-0.301-1.398-0.429-3.009-0.429-4.721c1.145-0.267,2.225-0.755,3.247-1.414
			c2.86-1.846,4.423-4.492,4.793-7.851c0.196-1.767,0.045-3.513-0.367-5.238c-0.038-0.164-0.073-0.289,0.111-0.404
			c1.273-0.792,2.537-1.593,3.805-2.391c0.028-0.017,0.062-0.021,0.146-0.045c0.151,0.881,0.323,1.747,0.44,2.619
			C145.084,380.885,145.127,383.002,144.834,385.12z"/>
		<path fill="none" stroke="#402F58" stroke-miterlimit="10" d="M78.169,355.934"/>
		<path fill="none" stroke="#402F58" stroke-width="16" stroke-miterlimit="10" d="M87.034,353.271"/>
		<path fill="#9783BD" d="M70.555,347.66c0,0-1.467,9.483-0.84,10.067c0,0,6.982-4.457,12.131-6.02L70.555,347.66z"/>
		<path fill="#9783BD" d="M143.059,347.66c0,0,1.467,9.483,0.84,10.067c0,0-6.982-4.457-12.131-6.02L143.059,347.66z"/>
		<g>
			<path fill-rule="evenodd" clip-rule="evenodd" fill="#402F58" d="M170.753,359.36c-2.971,1.927-5.936,3.86-8.911,5.777
				c-1.744,1.123-3.504,2.221-5.117,3.241c1.808,3.227,3.771,6.25,5.27,9.487c9.383,20.254,5.203,43.896-10.638,59.592
				c-8.787,8.705-19.523,13.123-31.912,13.297c-7.523,0.106-15.051,0.002-22.576,0.025c-16.936,0.054-30.117-7.219-39.736-20.879
				c-12.593-17.88-12.086-43.211,0.894-60.822c0.191-0.259,0.36-0.536,0.627-0.933c-2.715-1.722-5.376-3.412-8.039-5.097
				c-1.559-0.985-3.148-1.925-4.669-2.968c-0.4-0.274-0.834-0.849-0.841-1.291c-0.062-4.491-0.037-8.983-0.037-13.792
				c6.771,4.2,13.365,8.289,20.141,12.49c0.014-5.461,0.824-10.628,2.24-15.781c6.383,2.256,12.711,4.34,18.909,6.756
				c2.852,1.111,5.65,1.113,8.588,1.095c9.179-0.058,18.357,0.059,27.536,0.077c0.782,0.001,1.605-0.105,2.34-0.363
				c7.084-2.479,14.153-5.004,21.409-7.581c1.444,5.598,2.483,11.164,2.052,17.187c1.958-1.205,3.748-2.298,5.53-3.404
				c5.266-3.266,10.524-6.54,15.793-9.8c0.354-0.219,0.765-0.347,1.148-0.517C170.753,349.893,170.753,354.626,170.753,359.36z
				 M59.004,423.483c0.226,0.431,0.403,0.805,0.613,1.16c2.902,4.9,6.669,9.017,11.073,12.628c1.829,1.501,3.546,1.564,5.243,0.298
				c2.221-1.66,4.457-3.387,6.326-5.417c6.246-6.791,11.107-14.586,15.703-22.542c0.456-0.792,0.5-1.88,0.543-2.841
				c0.084-1.741-0.091-3.498,0.051-5.231c0.157-1.936,0.546-3.854,0.872-6.027c-0.355,0.385-0.541,0.586-0.728,0.788
				c-4.593,4.934-9.957,7.91-16.989,6.83c-0.47-0.072-1.213,0.388-1.536,0.819c-1.95,2.614-3.702,5.384-5.734,7.928
				c-3.2,4.009-6.713,7.728-11.428,10.021C61.756,422.508,60.407,422.935,59.004,423.483z M156.032,423.337
				c-3.531-0.855-6.456-2.617-9.1-4.907c-4.693-4.064-8.398-8.949-11.708-14.152c-0.604-0.949-1.189-1.362-2.37-1.193
				c-5.787,0.831-10.538-1.35-14.63-5.265c-0.46-0.44-0.841-0.603-1.224-1.124c-0.348,0.432-0.324,0.092-0.307,0.173
				c0.843,4.005,1.251,8.021,0.486,12.098c-0.075,0.403,0.146,0.942,0.39,1.312c4.008,6.068,7.903,12.217,12.117,18.141
				c2.486,3.494,5.416,6.701,9.153,8.992c2.508,1.536,3.317,1.457,5.568-0.377c0.366-0.298,0.737-0.591,1.102-0.893
				C149.805,432.563,153.271,428.311,156.032,423.337z M62.841,370.861c-0.508,0.696-1.004,1.323-1.447,1.989
				c-9.122,13.739-10.819,28.413-5.518,43.962c0.629,1.845,1.007,2.034,2.939,1.482c2.707-0.773,5.05-2.277,6.901-4.308
				c3.018-3.308,5.815-6.819,8.664-10.276c0.644-0.783,1.116-1.703,1.527-2.343c-2.008-1.747-4.06-3.168-5.652-4.989
				c-4.98-5.695-5.625-12.488-4.424-19.614c0.632-3.744,0.707-3.731-2.566-5.735C63.188,370.981,63.092,370.959,62.841,370.861z
				 M152.268,371.175c-1.021,0.654-1.941,1.157-2.749,1.8c-0.308,0.243-0.542,0.833-0.492,1.224
				c0.211,1.636,0.656,3.246,0.807,4.884c0.816,8.905-1.652,16.361-9.604,21.337c-0.38,0.236-0.729,0.52-1.126,0.805
				c3.273,5.155,6.779,9.918,11.385,13.71c1.646,1.355,3.629,2.38,5.597,3.239c1.905,0.834,2.3,0.506,2.992-1.455
				c3.676-10.418,3.888-20.909,0.582-31.45C158.063,380.179,155.603,375.529,152.268,371.175z M124.043,373.958
				c6.104-3.795,12.47-7.752,18.943-11.776c-3.366-2.453-6.86-4.168-10.554-5.55c-1.837-0.686-3.679-0.826-5.57-0.603
				c-1.687,0.2-3.378,0.43-5.036,0.797c-3.563,0.787-6.936,2.093-9.785,3.795C116.03,365.054,119.997,369.461,124.043,373.958z
				 M90.848,373.425c3.961-4.35,7.787-8.553,11.75-12.906c-1.987-0.846-4.108-1.869-6.312-2.666
				c-6.637-2.403-13.176-2.781-19.433,1.221c-1.446,0.925-2.944,1.771-4.626,2.777C78.672,365.857,84.846,369.694,90.848,373.425z
				 M107.26,363.783c-3.793,2.524-10.1,9.265-11.735,12.543c3.84,2.384,7.67,4.802,11.558,7.122c0.43,0.258,1.303,0.168,1.771-0.103
				c2.289-1.321,4.509-2.757,6.754-4.155c1.264-0.786,2.525-1.577,3.771-2.357C117.549,373.295,110.764,366.018,107.26,363.783z
				 M118.682,421.926c0.882,8.977-0.438,17.062-6.752,23.729c7.067,1.255,19.427-0.671,24.535-3.837
				c-3.77-2.443-6.865-5.55-9.589-9.012C124.139,429.327,121.544,425.737,118.682,421.926z M102.199,417.345
				c-2.877,10.083-0.544,21.233,5.324,25.487c6.95-5.42,7.674-17.098,5.424-24.697c-1.346,1.034-2.679,2.158-4.127,3.109
				c-0.409,0.27-1.277,0.743-1.673,0.461C105.473,420.51,103.863,418.683,102.199,417.345z M78.474,441.898
				c7.897,4.023,16.169,4.254,24.751,3.843c-6.395-6.708-7.68-14.755-6.893-23.649c-2.825,3.761-5.372,7.314-8.095,10.727
				C85.49,436.262,82.438,439.426,78.474,441.898z M50.085,353.851c-0.513,2.573-0.376,2.884,1.521,4.08
				c16.44,10.369,32.879,20.744,49.32,31.112c1.262,0.795,2.539,1.565,3.871,2.386c0.531-3.108,0.431-3.33-1.801-4.715
				c-14.501-9.009-29.002-18.024-43.502-27.035C56.377,357.742,53.254,355.813,50.085,353.851z M110.775,391.496
				c0.478-0.271,0.759-0.416,1.028-0.585c17.524-11.044,35.048-22.088,52.57-33.135c1.535-0.967,1.814-1.939,1.088-3.789
				c-4.588,2.849-9.166,5.693-13.745,8.537c-13.339,8.282-26.68,16.562-40.005,24.863c-0.391,0.244-0.833,0.702-0.894,1.113
				C110.684,389.41,110.775,390.351,110.775,391.496z M92.242,389.316c-0.306,0.417-0.54,0.845-0.872,1.174
				c-4.825,4.761-11.515,4.13-15.343-1.449c-2.045-2.979-2.077-6.277-1.5-9.674c0.068-0.409,0.086-1.067-0.148-1.246
				c-1.021-0.778-2.146-1.421-3.373-2.202c-0.175,0.835-0.312,1.377-0.4,1.926c-0.806,5.042-0.654,9.988,2.529,14.245
				c3.276,4.382,7.643,6.961,13.312,6.146c4.103-0.59,7.015-3.256,9.628-6.495C94.84,390.96,93.662,390.215,92.242,389.316z
				 M119.411,391.906c2.181,2.666,4.535,4.962,7.792,5.813c1.858,0.484,4.008,0.752,5.832,0.316
				c8.297-1.986,12.551-8.612,12.03-17.297c-0.088-1.473-0.366-2.934-0.585-4.615c-1.205,0.744-2.101,1.36-3.055,1.864
				c-0.815,0.43-0.877,0.997-0.82,1.851c0.12,1.826,0.3,3.711-0.016,5.488c-0.703,3.964-3.205,6.562-6.979,7.864
				c-3.579,1.235-6.689,0.223-9.423-2.239c-0.446-0.401-0.879-0.816-1.327-1.236C121.677,390.468,120.607,391.146,119.411,391.906z
				 M104.475,396.699c-0.166,0.128-0.33,0.255-0.496,0.381c-0.23,2.612-0.629,5.223-0.651,7.836
				c-0.032,3.634,0.99,6.991,3.461,9.793c1.033,1.17,1.304,1.186,2.317,0.055c2.533-2.821,3.492-6.213,3.546-9.909
				c0.042-2.721-0.186-5.413-1.145-8.26C109.172,398.592,106.883,399.667,104.475,396.699z M70.568,347.66
				c-0.319,3.334-0.62,6.471-0.924,9.642c4.126-2.034,7.912-3.902,11.764-5.802C77.919,350.265,74.4,349.018,70.568,347.66z
				 M143.055,347.667c-3.571,1.27-6.868,2.441-10.412,3.701c2.095,0.866,3.935,1.547,5.703,2.38c1.81,0.852,3.55,1.853,5.689,2.984
				C143.691,353.546,143.381,350.679,143.055,347.667z M79.306,381.154c-0.506,3.715,0.602,6.017,3.351,7.214
				c1.951,0.851,3.779,0.3,5.409-1.687C85.188,384.866,82.319,383.057,79.306,381.154z M127.232,386.97
				c2.205,2.07,3.997,2.33,6.094,0.982c2.101-1.351,3.169-4.084,2.38-6.333C132.904,383.388,130.128,385.141,127.232,386.97z
				 M101.934,354.476c-0.027,0.077-0.057,0.154-0.084,0.233c1.611,0.864,3.217,1.742,4.843,2.579c0.257,0.133,0.673,0.216,0.903,0.1
				c1.704-0.862,3.378-1.78,5.063-2.681c-0.023-0.077-0.047-0.155-0.072-0.231C109.037,354.476,105.484,354.476,101.934,354.476z"/>
		</g>
	</g>
</g>
</svg>
