<?xml version="1.0" encoding="utf-8"?>
<!-- Generator: Adobe Illustrator 16.0.3, SVG Export Plug-In . SVG Version: 6.00 Build 0)  -->
<!DOCTYPE svg PUBLIC "-//W3C//DTD SVG 1.1//EN" "http://www.w3.org/Graphics/SVG/1.1/DTD/svg11.dtd">
<svg version="1.1" id="Layer_1" xmlns="http://www.w3.org/2000/svg" xmlns:xlink="http://www.w3.org/1999/xlink" x="0px" y="0px"
	 width="412px" height="450px" viewBox="0 0 412 450" enable-background="new 0 0 412 450" xml:space="preserve">
<g>
	<g>
		<path fill="#FFFFFF" d="M69.846,386.162c3.306-0.75,6.708-1.129,10.194-1.129c2.645,0,5.085,0.305,7.308,0.9
			c2.225,0.607,4.156,1.568,5.778,2.891c2.227-1.08,4.753-1.986,7.581-2.707c2.826-0.721,5.596-1.084,8.305-1.084
			c2.4,0,4.647,0.254,6.72,0.77c2.075,0.514,3.864,1.369,5.366,2.572c1.506,1.203,2.695,2.783,3.567,4.732
			c0.872,1.963,1.306,4.383,1.306,7.27v29.055h-9.109v-28.695c0-1.746-0.243-3.172-0.726-4.291
			c-0.478-1.109-1.123-1.996-1.938-2.656s-1.79-1.135-2.933-1.398c-1.145-0.268-2.347-0.404-3.606-0.404
			c-2.109,0-4.022,0.264-5.731,0.809c-1.721,0.541-3.27,1.117-4.65,1.715c0.601,1.625,0.9,3.578,0.9,5.867v29.055h-9.114v-28.695
			c0-1.746-0.24-3.172-0.722-4.291c-0.478-1.109-1.13-1.996-1.941-2.656c-0.813-0.66-1.776-1.135-2.883-1.398
			c-1.118-0.268-2.333-0.404-3.659-0.404c-1.564,0-3.186,0.137-4.871,0.404c-1.684,0.264-3.189,0.588-4.512,0.945v36.096H61.36
			v-41.057C63.711,387.65,66.533,386.914,69.846,386.162z"/>
		<path fill="#FFFFFF" d="M150.879,369.691c0,1.625-0.494,2.889-1.485,3.791c-0.996,0.906-2.421,1.355-4.282,1.355
			c-1.813,0-3.225-0.449-4.247-1.355c-1.026-0.902-1.534-2.166-1.534-3.791c0-1.682,0.508-2.977,1.534-3.879
			c1.022-0.902,2.434-1.355,4.247-1.355C148.957,364.457,150.879,366.207,150.879,369.691z M149.709,385.934v43.498h-9.114v-43.498
			H149.709z"/>
		<path fill="#FFFFFF" d="M169.063,387.244c1.476-0.387,3.059-0.75,4.738-1.082c1.684-0.332,3.445-0.596,5.281-0.813
			c1.835-0.211,3.655-0.316,5.46-0.316c2.711,0,5.218,0.254,7.536,0.77c2.317,0.514,4.331,1.352,6.046,2.533
			c1.715,1.164,3.052,2.748,4.017,4.732c0.961,1.986,1.447,4.422,1.447,7.309v29.055h-9.119v-28.695c0-1.682-0.255-3.096-0.77-4.24
			c-0.51-1.145-1.214-2.047-2.117-2.707c-0.902-0.66-1.984-1.135-3.248-1.398c-1.268-0.268-2.621-0.404-4.063-0.404
			c-1.683,0-3.425,0.137-5.234,0.404c-1.807,0.264-3.398,0.588-4.778,0.945v36.096h-9.121v-41.057
			C166.283,388.012,167.593,387.637,169.063,387.244z"/>
		<path fill="#FFFFFF" d="M224.429,410.303c0.063,2.166,0.332,4.07,0.812,5.73c0.484,1.652,1.265,3.025,2.349,4.105
			c1.083,1.082,2.526,1.895,4.332,2.439c1.803,0.539,4.093,0.811,6.857,0.811c0.96,0,2.011-0.049,3.159-0.137
			c1.142-0.092,2.271-0.227,3.386-0.404c1.104-0.178,2.164-0.361,3.155-0.545c0.993-0.18,1.825-0.355,2.482-0.535l0.815,6.676
			c-1.748,0.479-3.869,0.916-6.364,1.311c-2.499,0.391-5.039,0.584-7.627,0.584c-3.425,0-6.553-0.336-9.382-0.994
			c-2.829-0.66-5.226-1.85-7.19-3.566c-1.97-1.711-3.503-4.025-4.604-6.945c-1.105-2.914-1.65-6.635-1.65-11.146
			c0-4.209,0.461-7.758,1.396-10.648c0.935-2.889,2.269-5.221,4.016-6.994c1.745-1.771,3.863-3.051,6.359-3.834
			c2.497-0.779,5.279-1.176,8.348-1.176c3.07,0,5.712,0.439,7.944,1.311c2.225,0.873,4.076,2.092,5.549,3.658
			c1.474,1.559,2.554,3.453,3.249,5.684c0.695,2.227,1.037,4.725,1.037,7.49v7.127H224.429z M244.104,403.986
			c0-8.359-3.113-12.541-9.343-12.541c-3.444,0-5.952,1.051-7.522,3.154c-1.567,2.107-2.479,5.236-2.718,9.387H244.104z"/>
		<path fill="#FFFFFF" d="M264.765,388.375c3.729-1.141,7.475-1.971,11.236-2.48c3.758-0.514,7.897-0.771,12.413-0.771v7.219
			c-0.672-0.057-1.354-0.092-2.078-0.092c-0.724,0-1.445,0-2.163,0c-1.924,0-3.792,0.123-5.6,0.363
			c-1.805,0.246-3.369,0.547-4.688,0.9v35.918h-9.12V388.375z"/>
		<path fill="#FFFFFF" d="M290.848,385.934h9.479l13.176,35.738c2.225-4.564,4.49-9.789,6.808-15.654
			c2.317-5.869,4.079-12.563,5.281-20.084h8.303c-1.143,8.125-3.133,15.717-5.955,22.787c-2.829,7.074-6.199,13.975-10.112,20.711
			h-10.193L290.848,385.934z"/>
		<path fill="#FFFFFF" d="M342.651,386.564c1.918-0.418,4.038-0.773,6.355-1.08c2.317-0.299,4.588-0.451,6.814-0.451
			c2.529,0,4.949,0.227,7.266,0.676c2.315,0.453,4.33,1.234,6.044,2.352c1.718,1.113,3.087,2.574,4.109,4.373
			c1.02,1.803,1.53,4.063,1.53,6.771v28.066c-2.287,0.658-5.039,1.338-8.256,2.031c-3.217,0.684-6.665,1.035-10.332,1.035
			c-2.528,0-4.873-0.244-7.036-0.721c-2.172-0.484-4.053-1.279-5.642-2.391c-1.598-1.113-2.846-2.578-3.744-4.379
			c-0.899-1.809-1.353-4.063-1.353-6.771c0-2.525,0.492-4.631,1.49-6.318c0.985-1.68,2.3-3.031,3.92-4.053
			c1.625-1.027,3.522-1.746,5.688-2.174c2.164-0.418,4.424-0.631,6.765-0.631c1.929,0,3.658,0.078,5.195,0.227
			c1.534,0.156,2.927,0.35,4.193,0.592v-4.242c0-3.012-0.981-5.037-2.935-6.094c-1.954-1.049-4.405-1.578-7.35-1.578
			c-2.052,0-4.155,0.182-6.319,0.537c-2.168,0.367-4.091,0.727-5.78,1.086L342.651,386.564z M365.659,410.303
			c-1.267-0.238-2.652-0.438-4.149-0.588c-1.507-0.15-3.043-0.221-4.604-0.221c-1.322,0-2.572,0.086-3.741,0.264
			c-1.177,0.186-2.204,0.529-3.073,1.041c-0.869,0.514-1.565,1.234-2.076,2.17c-0.512,0.932-0.763,2.148-0.763,3.648
			c0,2.768,0.887,4.682,2.659,5.729c1.775,1.063,3.921,1.582,6.451,1.582c1.811,0,3.506-0.115,5.104-0.361
			c1.589-0.24,2.987-0.512,4.193-0.809V410.303z"/>
	</g>
	<g>
		<g>
			<path fill-rule="evenodd" clip-rule="evenodd" fill="#96BEE5" d="M383.19,62.394c0.047,0.854-0.318,1.301-0.98,1.721
				c-4.729,2.951-9.455,5.919-14.174,8.905c-7.746,4.875-15.479,9.772-23.225,14.646c-9.985,6.3-19.977,12.604-29.953,18.889
				c-7.375,4.644-14.749,9.288-22.112,13.938c-7.775,4.898-15.536,9.796-23.309,14.694c-7.365,4.653-14.74,9.285-22.115,13.935
				c-7.765,4.903-15.534,9.808-23.307,14.706c-1.58,0.999-3.161,1.987-4.76,2.967c-0.447,0.285-0.945,0.508-1.595,0.838v-5.543
				c0-1.432,0.062-2.871-0.012-4.295c-0.05-0.879,0.296-1.362,1.001-1.797c3.514-2.146,7.01-4.338,10.503-6.512
				c4.993-3.101,9.997-6.202,15.003-9.313c9.065-5.636,18.132-11.288,27.217-16.917c7.833-4.864,15.67-9.717,23.507-14.571
				c9.017-5.597,18.027-11.205,27.046-16.806c9.016-5.599,18.035-11.202,27.047-16.807c9.019-5.599,18.03-11.195,27.056-16.794
				c2.018-1.249,4.057-2.489,6.087-3.723c0.265-0.162,0.548-0.275,1.047-0.53v4.378C383.162,59.737,383.101,61.074,383.19,62.394z"
				/>
			<path fill-rule="evenodd" clip-rule="evenodd" fill="#96BEE5" d="M200.718,167.777c-1.568-0.959-2.896-1.749-4.207-2.578
				c-4.174-2.604-8.339-5.222-12.496-7.858c-3.761-2.382-7.485-4.781-11.26-7.151c-4.074-2.575-8.168-5.115-12.245-7.684
				c-4.386-2.765-8.762-5.557-13.157-8.327c-4.479-2.825-8.97-5.627-13.439-8.446c-4.714-2.975-9.413-5.955-14.116-8.934
				c-4.161-2.626-8.336-5.222-12.493-7.852c-3.296-2.085-6.584-4.204-9.876-6.281c-3.964-2.499-7.947-4.962-11.908-7.446
				c-3.679-2.32-7.338-4.662-11.014-6.986c-4.155-2.623-8.324-5.243-12.485-7.863c-3.333-2.1-6.646-4.234-9.979-6.317
				c-4.078-2.57-8.177-5.109-12.254-7.668c-1.344-0.848-2.722-1.671-4.026-2.592c-0.312-0.233-0.526-0.787-0.542-1.206
				c-0.053-1.939,0-3.889-0.034-5.823c-0.019-0.707-0.178-1.408-0.245-2.105c-0.031-0.224,0.031-0.451,0.049-0.677
				c0.245,0.037,0.526,0,0.722,0.125c2.042,1.225,4.06,2.47,6.076,3.726c3.344,2.057,6.689,4.133,10.033,6.214
				c4.72,2.939,9.435,5.909,14.155,8.841c4.298,2.661,8.609,5.293,12.904,7.966c4.699,2.923,9.376,5.865,14.069,8.789
				c3.23,2.002,6.478,3.961,9.711,5.963c3.974,2.486,7.932,4.991,11.906,7.46c4.344,2.713,8.715,5.391,13.062,8.101
				c3.605,2.232,7.185,4.512,10.794,6.744c4.259,2.645,8.545,5.268,12.807,7.907c4.732,2.942,9.434,5.915,14.154,8.853
				c4.391,2.701,8.798,5.376,13.179,8.095c3.579,2.212,7.111,4.494,10.683,6.725c3.57,2.229,7.161,4.408,10.728,6.649
				c0.318,0.206,0.713,0.643,0.713,0.971C200.735,160.555,200.718,163.999,200.718,167.777z"/>
			<path fill-rule="evenodd" clip-rule="evenodd" fill="#9783BD" d="M174.147,168.036c-1.65,1.871-3.166,3.695-4.794,5.407
				c-4.347,4.583-9.239,8.464-14.954,11.229c-8.676,4.2-17.618,4.794-26.667,1.471c-11.33-4.16-20.366-11.137-26.082-21.983
				c-3.024-5.745-4.608-11.927-5.208-18.349c-0.776-8.355,0.007-16.595,1.865-24.758c0.043-0.202,0.124-0.385,0.211-0.632
				c0.166,0.07,0.319,0.116,0.453,0.195c3.515,2.213,7.017,4.44,10.552,6.63c0.558,0.353,0.573,0.675,0.42,1.244
				c-1.634,6.339-2.128,12.735-1.062,19.237c2.214,13.445,13.699,24.485,27.203,25.896c7.77,0.818,14.568-1.744,20.493-6.661
				c2.194-1.815,4.135-3.938,6.309-6.028C166.503,163.221,170.238,165.566,174.147,168.036z"/>
			<path fill-rule="evenodd" clip-rule="evenodd" fill="#9783BD" d="M320.433,147.951c-2.128,15.411-9.836,27.028-23.484,34.624
				c-5.322,2.96-10.941,5.021-17.069,5.431c-9.037,0.594-16.919-2.449-24.114-7.656c-4.424-3.207-8.234-7.023-11.685-11.223
				c-0.149-0.191-0.279-0.386-0.475-0.668c3.674-2.321,7.233-4.567,10.678-6.737c2.026,1.878,3.897,3.832,5.979,5.519
				c5.027,4.09,10.779,6.484,17.344,6.542c5.816,0.042,11.105-1.818,15.957-4.944c8.575-5.537,13.267-13.476,14.373-23.56
				c0.592-5.298,0.139-10.539-1.096-15.714c-0.113-0.495-0.219-0.87,0.334-1.208c3.823-2.379,7.61-4.785,11.417-7.18
				c0.079-0.046,0.182-0.061,0.439-0.132c0.453,2.646,0.968,5.245,1.317,7.855C321.188,135.247,321.316,141.594,320.433,147.951z"/>
			<path fill-rule="evenodd" clip-rule="evenodd" fill="#71CFEF" d="M194.551,75.286c-13.746,11.091-25.286,24.116-35.312,38.639
				c-19.035-11.825-38.004-23.605-57.091-35.461c4.534-3.214,9.154-6.019,13.948-8.554c7.157-3.771,14.633-6.762,22.359-9.12
				c1.858-0.572,3.71-0.4,5.572-0.315c17.67,0.738,34.176,5.59,49.581,14.233C193.875,74.865,194.13,75.024,194.551,75.286z"/>
			<path fill-rule="evenodd" clip-rule="evenodd" fill="#71CFEF" d="M314.894,79.342c-19.444,12.067-38.839,24.111-58.331,36.208
				c-10.238-15.123-22.112-28.718-36.425-40.283c6.276-3.588,12.628-6.524,19.268-8.829c11.511-4.02,23.38-6.034,35.564-6.022
				c1.452,0.009,2.93,0.555,4.339,0.996c12.682,3.964,24.388,9.885,35.19,17.587C314.609,79.072,314.702,79.178,314.894,79.342z"/>
			<path fill-rule="evenodd" clip-rule="evenodd" fill="#96BEE5" d="M223.74,206.052c-0.03,5.437-0.654,10.788-2.23,16.014
				c-2.104,6.93-5.738,12.885-11.117,17.77c-0.688,0.625-1.107,0.561-1.757-0.021c-6.349-5.766-10.145-12.951-11.997-21.247
				c-1.361-6.121-1.479-12.277-1.117-18.488c0.309-5.283,1.083-12.292,2.399-17.394c0.097-0.362,1.241,0.563,1.418,0.002
				c3.077,1.849,2.517,2.709,5.369,4.561c1.146,0.751,5.306,0.717,6.424,0c3.045-1.926,5.465-2.361,8.55-4.207
				c0.195-0.119,0.416-0.186,0.817-0.357c0.279,1.029,0.588,1.987,0.82,2.947C222.902,192.346,223.787,199.151,223.74,206.052z"/>
			<path fill-rule="evenodd" clip-rule="evenodd" fill="#96BEE5" d="M227.885,273.998c-0.21,10.73-1.953,21.141-6.688,30.895
				c-3.089,6.365-7.24,11.918-12.532,16.613c-0.147,0.135-0.315,0.242-0.502,0.389c-3.49-2.986-6.466-6.377-9.025-10.143
				c-5.028-7.398-7.969-15.605-9.45-24.369c-2.123-12.641-1.258-25.178,1.105-37.684c0.373-1.984,0.846-3.936,1.261-5.895
				c0.034-0.139,0.087-0.258,0.181-0.555c4.759,6.205,10.564,11.051,17.297,14.844c5.669-3.195,10.782-7.203,15.297-12.379
				c0.585,3.191,1.18,6.104,1.642,9.047C227.464,261.129,228.008,267.545,227.885,273.998z"/>
			<path fill-rule="evenodd" clip-rule="evenodd" fill="#9783BD" d="M196.101,330.127c-0.092,0.146-0.188,0.285-0.292,0.422h-0.961
				c-7.873-0.006-15.749,0.09-23.624-0.021c-17.507-0.258-34.205-4.102-50.065-11.539c-0.214-0.1-0.416-0.217-0.746-0.379
				c0.6-0.367,1.138-0.682,1.678-1.01c5.231-3.195,9.928-7.068,14.324-11.32c11.023-10.656,20.333-22.742,29.149-35.223
				c2.967-4.207,5.789-8.512,8.676-12.758c0.168-0.254,0.348-0.488,0.417-0.574c-0.207,5.488-0.634,11.098-0.579,16.705
				c0.11,13.232,2.597,25.986,8.603,37.904c3.218,6.379,7.371,12.086,12.392,17.162C195.354,329.771,195.761,329.92,196.101,330.127
				z"/>
			<path fill-rule="evenodd" clip-rule="evenodd" fill="#9783BD" d="M295.773,318.51c-1.649,0.742-3.281,1.523-4.946,2.23
				c-11.094,4.73-22.621,7.857-34.64,9.035c-4.43,0.434-8.887,0.668-13.347,0.74c-7.057,0.123-14.112,0.033-21.166,0.033h-1.345
				c0.598-0.641,1.051-1.15,1.528-1.635c9.606-9.889,15.401-21.748,18.325-35.104c1.671-7.598,2.338-15.297,2.136-23.045
				c-0.11-4.281-0.553-8.551-0.845-12.83c-0.005-0.234,0-0.453,0-0.877c0.301,0.404,0.499,0.666,0.674,0.938
				c8.207,12.463,16.817,24.65,26.521,36.008c6.251,7.311,12.86,14.289,20.611,20.059
				C291.347,315.607,293.536,316.984,295.773,318.51z"/>
			<path fill-rule="evenodd" clip-rule="evenodd" fill="#6CCBDA" d="M244.151,123.237c-0.38,0.245-0.771,0.501-1.162,0.747
				c-10.9,6.771-21.805,13.535-32.697,20.328c-0.795,0.506-1.358,0.511-2.167,0.009c-11.835-7.391-23.694-14.747-35.557-22.115
				c-0.282-0.174-0.566-0.361-0.992-0.627c10.03-14.444,21.688-27.272,35.732-37.841C217.232,89.979,238.91,113.193,244.151,123.237
				z"/>
			<path fill-rule="evenodd" clip-rule="evenodd" fill="#6CCBDA" d="M361.166,247.684c-0.301,0.742-0.671,0.943-1.418,0.93
				c-4.806-0.104-9.109-1.801-13.225-4.096c-5.785-3.229-10.833-7.43-15.547-12.053c-10.954-10.749-19.988-23.011-28.232-35.909
				c-0.094-0.138-0.142-0.297-0.149-0.297c3.109-2.061,6.284-3.937,9.217-6.138c11.796-8.872,19.035-20.679,22.071-35.074
				c2.903-13.793,1.773-27.432-1.731-40.966c-0.104-0.393-0.196-0.78-0.318-1.255c3.511-2.21,7.021-4.429,10.626-6.704
				c0.214,0.264,0.434,0.514,0.633,0.766c13.273,17.633,21.89,37.311,26.027,58.973c1.559,8.18,2.382,16.439,2.517,24.76
				C371.973,210.344,368.531,229.365,361.166,247.684z"/>
			<path fill-rule="evenodd" clip-rule="evenodd" fill="#6CCBDA" d="M114.205,196.02c-0.809,1.251-1.573,2.47-2.374,3.682
				c-6.896,10.495-14.385,20.542-23.094,29.606c-5.832,6.066-12.056,11.666-19.543,15.664c-4.093,2.188-8.388,3.732-13.146,3.592
				c-0.796-0.02-1.102-0.322-1.381-1.002c-4.781-11.949-7.984-24.3-9.432-37.093c-3.278-28.902,1.354-56.438,14.385-82.503
				c3.935-7.839,8.624-15.22,13.997-22.154c0.19-0.238,0.395-0.472,0.649-0.768c2.287,1.438,4.561,2.875,6.829,4.295
				c1.268,0.802,2.514,1.635,3.808,2.384c0.625,0.362,0.714,0.705,0.521,1.387c-2.201,7.696-3.462,15.552-3.714,23.554
				c-0.34,10.926,1.209,21.527,5.795,31.55c5.395,11.817,14.033,20.619,25.259,26.992
				C113.209,195.447,113.647,195.705,114.205,196.02z"/>
			<path fill-rule="evenodd" clip-rule="evenodd" fill="#71CFEF" d="M354.055,262.631c-0.903,1.559-1.736,3.066-2.62,4.545
				c-5.538,9.172-12.003,17.615-19.504,25.262c-5.367,5.473-11.17,10.398-17.321,14.936c-1.457,1.076-2.94,1.201-4.553,1.006
				c-2.801-0.35-5.285-1.527-7.667-2.941c-5.87-3.473-10.82-8.049-15.494-12.922c-12.229-12.701-22.476-26.938-32.036-41.674
				c-6.139-9.453-11.856-19.164-17.731-28.789c-0.278-0.462-0.361-1.166-0.256-1.709c1.413-7.456,1.603-14.944,0.97-22.488
				c-0.43-5.271-1.522-10.424-2.604-15.582c-0.077-0.354-0.118-0.731-0.179-1.092c0.073-0.06,0.15-0.108,0.239-0.164
				c1.712,1.743,3.422,3.499,5.133,5.238c4.556,4.641,9.837,8.281,15.647,11.165c7.622,3.777,15.698,5.563,24.216,5.058
				c2.77-0.175,5.524-0.668,8.348-1.013c2.076,3.177,4.17,6.478,6.361,9.717c7.553,11.128,15.757,21.745,25.367,31.182
				c6.574,6.455,13.651,12.246,21.98,16.32c3.573,1.734,7.269,3.063,11.181,3.793C353.657,262.504,353.782,262.545,354.055,262.631z
				"/>
			<path fill-rule="evenodd" clip-rule="evenodd" fill="#71CFEF" d="M183.243,184.631c-2.128,9.876-3.113,19.862-1.841,29.934
				c0.322,2.633-0.217,4.666-1.503,6.879c-10.892,18.743-22.46,37.046-35.74,54.21c-6.31,8.146-12.974,15.982-20.697,22.855
				c-3.695,3.295-7.586,6.342-12.135,8.402c-2.186,0.99-4.428,1.764-6.907,1.467c-0.228-0.025-0.484,0.289-0.863,0.529
				c-8.581-5.85-16.426-12.754-23.474-20.578c-7.026-7.799-13.056-16.311-18.031-25.338c3.511-1.178,7.034-2.131,10.372-3.539
				c7.42-3.137,13.788-7.932,19.739-13.291c10.109-9.104,18.644-19.59,26.435-30.672c3.073-4.384,5.932-8.912,8.881-13.369
				c0.282-0.422,0.45-0.808,1.16-0.646c15.34,3.422,29.045-0.414,41.533-9.493c5.186-3.76,9.713-8.219,13.784-13.161
				c0.239-0.279,0.466-0.548,0.843-0.726C184.273,180.267,183.72,182.443,183.243,184.631z"/>
			<path fill-rule="evenodd" clip-rule="evenodd" fill="#94BEE6" d="M225.786,55.922c-6.052,3.229-12.285,6.56-18.437,9.842
				c-6.1-3.27-12.352-6.606-18.419-9.852L225.786,55.922z"/>
			<path fill-rule="evenodd" clip-rule="evenodd" fill="#2FBEBC" d="M114.253,196.136c-0.809,1.255-1.622,3.205-2.422,4.417
				c-6.896,10.492-14.385,20.542-23.094,29.605c-5.832,6.07-12.056,11.672-19.543,15.67c-4.093,2.18-8.388,3.732-13.146,3.59
				c-0.159,0-0.299-0.012-0.422-0.045c-0.336-0.293-0.655-0.619-0.958-0.959c-0.631-1.572-1.23-3.168-1.813-4.766
				c-22.412-40.416,32.711-131.748,32.711-131.748l-0.055,1.589c0,0.132-0.041,0.3-0.086,0.481
				c-2.201,7.691-3.462,15.545-3.714,23.544c-0.34,10.926,1.819,21.891,6.405,31.917c5.396,11.808,12.781,18.778,24.006,25.14
				C112.563,194.817,113.697,195.821,114.253,196.136z"/>
			<path fill-rule="evenodd" clip-rule="evenodd" fill="#6CCBDA" d="M-42.428,176.803"/>
			<path fill-rule="evenodd" clip-rule="evenodd" fill="#2FBEBC" d="M372.085,200.421c-0.719,16.442-4.146,32.387-10.35,47.831
				c-0.301,0.74-0.671,0.949-1.416,0.928c-4.808-0.1-9.109-1.797-13.229-4.094c-5.786-3.229-10.831-7.436-15.545-12.053
				c-2.701-2.646-5.284-5.393-7.771-8.216c8.599-26.697,30.185-65.781,39.384-81.849c2.752,7.393,4.889,15.047,6.436,22.975
				L372.085,200.421z"/>
			<path fill-rule="evenodd" clip-rule="evenodd" fill="#66459B" d="M174.147,168.036c-1.65,1.871-3.166,3.695-4.794,5.407
				c-4.347,4.583-9.239,8.464-14.952,11.229c-8.678,4.2-17.621,4.794-26.67,1.471c-2.761-1.013-5.385-2.192-7.859-3.566
				c2.345-3.425,5.6-6.977,9.411-10.522c2.183,0.791,4.461,1.317,6.8,1.567c7.77,0.818,14.568-1.744,20.493-6.661
				c2.194-1.815,4.135-3.94,6.309-6.028C166.503,163.221,170.238,165.566,174.147,168.036z"/>
			<path fill-rule="evenodd" clip-rule="evenodd" fill="#5C83C2" d="M228.74,273.146c-0.215,10.729-1.953,21.139-6.692,30.898
				c-3.083,6.355-7.233,11.91-12.533,16.607c-8.415-34.309,6.72-41.551,7.571-50.072c0.859-8.521-6.704-13.338-6.704-13.338
				c5.669-3.195,10.781-7.199,15.3-12.383c0.581,3.195,1.178,6.109,1.641,9.051C228.317,260.273,228.859,266.693,228.74,273.146z"/>
		</g>
		<path fill-rule="evenodd" clip-rule="evenodd" fill="#3FBBEC" d="M355.228,262.205c-0.906,1.586-1.744,3.123-2.639,4.623
			c-5.56,9.35-12.063,17.957-19.6,25.752c-5.384,5.572-11.219,10.586-17.405,15.221c-1.465,1.092-2.956,1.223-4.571,1.02
			c-2.032-0.258-3.894-0.949-5.682-1.861c-0.582-0.352-1.258-0.723-2.03-1.133c-0.911-0.545-1.812-1.127-2.688-1.736
			c-0.012-0.006-0.034-0.016-0.05-0.037c-19.033-14.852-38.42-84.308-11.874-102.645c7.05,10.301,23.845,31.336,32.688,40.146
			c6.605,6.568,13.714,12.471,22.09,16.623c3.588,1.771,7.302,3.119,11.236,3.865C354.825,262.072,354.952,262.113,355.228,262.205z
			"/>
		<path fill-rule="evenodd" clip-rule="evenodd" fill="#3FBBEC" d="M183.299,184.659c-2.128,9.885-3.109,19.893-1.838,29.977
			c0.319,2.639-0.221,4.671-1.503,6.89c-10.892,18.783-22.467,37.109-35.741,54.296c-6.313,8.162-12.977,16.014-20.7,22.898
			c-2.716,2.428-5.547,4.721-8.657,6.582c-1.119,0.674-2.278,1.281-3.479,1.836c-2.186,0.99-5.063,2.297-7.549,1.998
			c-0.217-0.027,0.16-0.244-0.227-0.004c-18.466-14.977,9.359-78.088,21.445-103.18c0.824-1.257,1.656-2.528,2.483-3.77
			c0.278-0.432,0.45-0.818,1.155-0.652c0.446,0.103,0.881,0.183,1.319,0.275c14.811,2.935,28.087-0.95,40.219-9.787
			c5.186-3.771,9.717-8.239,13.788-13.186c0.232-0.278,0.469-0.544,0.838-0.725C184.332,180.283,183.777,182.459,183.299,184.659z"
			/>
		<path fill-rule="evenodd" clip-rule="evenodd" fill="#66459B" d="M320.433,147.951c-2.128,15.411-9.836,27.028-23.484,34.624
			c-3.774,2.098-7.691,3.744-11.85,4.674c-0.903-4.196-1.28-9.028-1.28-14.17c3.435-0.8,6.671-2.259,9.744-4.241
			c8.575-5.537,13.267-13.476,14.373-23.56c0.592-5.298,0.139-10.539-1.096-15.714c-0.113-0.495-0.219-0.87,0.334-1.208
			c3.823-2.379,7.61-4.785,11.417-7.18c0.079-0.046,0.182-0.061,0.439-0.132c0.453,2.646,0.968,5.245,1.317,7.855
			C321.188,135.247,321.316,141.596,320.433,147.951z"/>
		<path fill="none" stroke="#402F58" stroke-miterlimit="10" d="M120.413,60.38"/>
		<path fill="none" stroke="#402F58" stroke-width="16" stroke-miterlimit="10" d="M147.009,52.387"/>
		<path fill="#9783BD" d="M97.566,35.556c0,0-4.405,28.454-2.526,30.209c0,0,20.952-13.378,36.403-18.062L97.566,35.556z"/>
		<path fill="#9783BD" d="M315.108,35.556c0,0,4.401,28.454,2.52,30.209c0,0-20.948-13.378-36.398-18.062L315.108,35.556z"/>
		<g>
			<path fill-rule="evenodd" clip-rule="evenodd" fill="#402F58" d="M398.215,70.64V28.037c-1.16,0.536-2.383,0.91-3.45,1.567
				c-15.831,9.781-31.598,19.593-47.397,29.408c-5.327,3.322-10.723,6.582-16.581,10.218c1.281-18.089-1.819-34.797-6.178-51.568
				c-21.755,7.711-42.979,15.298-64.23,22.728c-2.195,0.783-4.671,1.096-7.021,1.096c-27.525-0.062-55.08-0.407-82.604-0.251
				c-8.837,0.064-17.208,0.064-25.767-3.258c-18.619-7.273-37.586-13.513-56.738-20.284c-4.264,15.457-6.677,30.972-6.74,47.337
				C61.194,52.426,41.412,40.168,21.1,27.568c0,14.419-0.094,27.897,0.092,41.38c0.034,1.315,1.316,3.04,2.541,3.884
				c4.546,3.105,9.309,5.927,14.012,8.906c7.963,5.045,15.956,10.124,24.108,15.297c-0.818,1.191-1.316,2.005-1.883,2.789
				c-38.934,52.819-40.47,128.837-2.663,182.476c28.839,41.002,68.402,62.82,119.216,62.664c22.568-0.064,45.169,0.25,67.742-0.094
				c37.148-0.502,69.373-13.762,95.736-39.873c47.523-47.119,60.063-118.059,31.911-178.81c-4.483-9.72-10.376-18.778-15.797-28.463
				c4.824-3.074,10.124-6.364,15.358-9.717C380.409,82.237,389.279,76.439,398.215,70.64z M383.168,61.393
				c-0.534,1.693-1.883,3.104-4.108,4.512c-52.57,33.136-105.142,66.272-157.74,99.438c-0.784,0.499-1.632,0.94-3.073,1.754
				c0-3.447-0.282-6.269,0.126-8.998c0.186-1.221,1.502-2.602,2.696-3.352c39.968-24.892,79.998-49.75,120.031-74.577
				c13.729-8.559,27.46-17.084,41.221-25.645c0.376,0.94,0.657,1.85,0.848,2.667C383.575,58.821,383.575,60.202,383.168,61.393z
				 M350.846,268.098c-2.226,3.605-4.575,7.055-7.052,10.41c-0.784,1.033-1.568,2.1-2.382,3.104
				c-0.806,1.037-1.672,2.033-2.514,3.045c-1.438,1.758-2.977,3.445-4.51,5.104c-0.252,0.252-0.469,0.533-0.72,0.785
				c-3.512,3.701-7.211,7.209-11.19,10.502c-1.098,0.91-2.228,1.785-3.323,2.664c-6.74,5.516-9.186,5.736-16.708,1.129
				c-1.317-0.816-2.604-1.631-3.857-2.541c-0.031,0-0.031-0.029-0.061-0.063c-9.346-6.549-16.96-15.139-23.546-24.389
				c-12.63-17.771-24.324-36.205-36.361-54.419c-0.722-1.096-1.38-2.728-1.16-3.919c2.29-12.223,1.065-24.261-1.441-36.236
				c-0.031-0.03-0.031-0.03-0.031-0.064c0.031-0.03,0.031,0,0.031,0c0,0.034,0,0.034,0,0.064c0.064,0.125,0.312,0.156,0.909-0.597
				c0.596,0.847,1.221,1.381,1.879,1.913c0.566,0.437,1.16,0.878,1.788,1.473c12.288,11.725,26.52,18.275,43.887,15.799
				c0.689-0.092,1.286-0.126,1.85-0.092c0.565,0,1.064,0.092,1.536,0.282c0.688,0.217,1.286,0.563,1.849,1.064
				c0.221,0.187,0.406,0.376,0.597,0.628l0.092,0.091c0.411,0.441,0.785,0.974,1.193,1.602c0.188,0.312,0.374,0.624,0.596,0.909
				c9.78,15.263,20.753,29.59,34.546,41.566c7.803,6.771,16.425,11.973,26.801,14.576c0.063,0.033,0.158,0.033,0.222,0.064
				c0.092,0.029,0.187,0.029,0.282,0.061v0.033c-0.534,0.91-1.066,1.85-1.601,2.758
				C351.945,266.313,351.379,267.189,350.846,268.098z M209.439,320.324c-0.317,0.283-0.63,0.533-0.944,0.785
				c-17.617-12.758-24.606-46.209-15.985-76.457c1.16,0.939,2.319,1.975,3.479,3.008c0.094,0.096,0.188,0.188,0.283,0.283
				c0.029,0.031,0.061,0.064,0.091,0.094c1.193,1.096,2.386,2.195,3.546,3.322c0.125,0.096,0.25,0.221,0.342,0.314
				c0.031,0.031,0.031,0.031,0.064,0.061c2.318,2.166,4.668,4.297,7.054,5.99c0.438,0.311,1.096,0.311,1.785,0.154
				c0.44-0.125,0.942-0.313,1.38-0.502c0.719-0.342,1.381-0.719,1.849-1.035c2.131-1.406,4.171-2.912,6.175-4.48
				c0.034-0.029,0.095-0.063,0.126-0.094c2.038-1.6,4.045-3.197,6.083-4.764c0.407,1.377,0.784,2.852,1.129,4.326
				c0.031,0.094,0.031,0.186,0.062,0.279c3.732,16.303,3.135,37.211-4.763,53.291c-0.347,0.785-0.754,1.568-1.194,2.352
				c-0.374,0.785-0.814,1.537-1.316,2.256c-0.344,0.629-0.749,1.256-1.191,1.854c-0.061,0.125-0.155,0.217-0.218,0.311v0.031
				C215.08,314.934,212.448,317.848,209.439,320.324z M195.58,329.855c-25.736,1.223-50.563,0.531-74.262-11.535
				c11.881-7.432,21.065-16.93,29.309-27.244c8.058-10.123,15.613-20.656,23.952-31.785c0.092-0.125,0.217-0.281,0.312-0.406
				c-2.351,26.645,1.507,50.75,20.597,70.875l0.03,0.033l0.062,0.031V329.855z M97.964,304.434
				c-13.198-10.85-24.515-23.199-33.228-37.902c-0.627-1.064-1.16-2.16-1.818-3.477c2.382-0.91,4.671-1.725,6.897-2.604
				c0.438-0.156,0.909-0.346,1.347-0.533c0.312-0.094,0.594-0.219,0.879-0.344c0.468-0.223,0.97-0.408,1.44-0.629
				c0.502-0.217,0.971-0.406,1.442-0.658c0.875-0.438,1.753-0.875,2.602-1.348c0.377-0.189,0.719-0.406,1.097-0.627
				c0.03,0,0.094-0.031,0.125-0.061c12.288-6.896,21.757-17.086,30.47-28.027c2.259-2.789,4.359-5.672,6.426-8.621
				c0.315-0.407,0.627-0.844,0.942-1.286c0.251-0.343,0.503-0.689,0.72-1.034c0.784-1.066,1.537-2.192,2.32-3.291
				c0-0.032,0.03-0.032,0.03-0.062c0.126-0.158,0.251-0.345,0.377-0.532c1.473-2.134,2.979-4.294,4.515-6.395
				c0,0,0-0.034,0.031-0.034c0.594-0.876,1.221-1.693,1.849-2.537c0.97-1.286,3.199-2.664,4.607-2.446c0.034,0,0.034,0,0.064,0
				c0.126,0.03,0.217,0.03,0.343,0.03c0.377,0.095,0.783,0.126,1.16,0.159c0.189,0.061,0.407,0.061,0.597,0.092
				c5.33,0.627,10.344,0.441,15.076-0.407c0.818-0.157,1.632-0.312,2.446-0.503c0.158-0.029,0.283-0.061,0.409-0.091
				c0.813-0.221,1.631-0.441,2.415-0.691c0.031-0.03,0.031-0.03,0.061-0.03c0.065-0.032,0.156-0.032,0.221-0.062
				c0.438-0.095,0.845-0.25,1.252-0.376c0.502-0.156,1.004-0.347,1.476-0.532c0.939-0.347,1.849-0.722,2.758-1.13
				c0.627-0.282,1.221-0.594,1.849-0.879c0.627-0.311,1.256-0.625,1.849-0.97c3.857-2.005,7.525-4.546,11.003-7.525
				c2.759-2.256,5.424-4.828,7.996-7.585c0.563-0.594,1.127-1.192,2.192-2.352c-0.218,1.411-0.438,2.792-0.658,4.139
				c0,0.03,0,0.03,0,0.061c-0.03,0.19-0.063,0.377-0.093,0.567c-0.033,0.092-0.033,0.157-0.033,0.25
				c-0.75,4.544-1.503,8.808-1.849,13.073c-0.407,5.204,0.125,10.469-0.125,15.705c-0.031,0.251-0.031,0.563-0.063,0.846
				c0,0.033,0,0.033,0,0.063v0.347c0,0.03,0,0.03,0,0.061c-0.155,2.477-0.406,5.173-1.567,7.178
				c-3.259,5.674-6.646,11.379-10.062,16.961c-0.064,0.094-0.096,0.156-0.156,0.25c-0.785,1.287-1.568,2.568-2.417,3.854
				c-0.029,0.064-0.094,0.158-0.125,0.223c-1.879,3.039-3.792,6.049-5.737,9.025c-1.975,3.041-4.013,6.084-6.144,9.061
				c-1.004,1.41-1.975,2.822-2.979,4.203c-2.036,2.789-4.075,5.545-6.206,8.273c-0.156,0.188-0.315,0.408-0.472,0.629
				c-0.156,0.186-0.282,0.377-0.438,0.563c-3.948,5.016-8.057,9.906-12.383,14.607c-5.611,6.08-12.318,11.285-18.996,16.238
				c-4.043,3.043-8.151,3.541-12.447,1.35C100.189,306.092,99.094,305.34,97.964,304.434z M70.067,111.142
				c1.346-2.008,2.819-3.888,4.356-5.957c0.03,0.03,0.095,0.03,0.124,0.064h0.032c0.627,0.217,0.878,0.281,1.13,0.438
				c3.039,1.88,5.14,3.135,6.487,4.356l0.034,0.033c1.316,1.191,1.943,2.317,2.131,3.885c0.125,1.066,0.061,2.29-0.156,3.888v0.03
				c-0.126,0.818-0.251,1.724-0.441,2.793c0,0.061-0.03,0.155-0.03,0.217c-0.126,0.627-0.22,1.286-0.343,2.007
				c-1.476,8.777-2.038,17.367-1.129,25.642c0.095,0.878,0.221,1.753,0.346,2.632c0.187,1.255,0.438,2.508,0.689,3.764
				c0.658,3.259,1.598,6.49,2.819,9.625c0.064,0.091,0.094,0.217,0.126,0.311c0,0.032,0.033,0.064,0.033,0.096
				c2.351,5.861,5.768,11.473,10.375,16.769c3.386,3.823,7.46,7.118,11.661,10.534c0.033,0.03,0.033,0.03,0.064,0.062
				c0.342,0.25,0.719,0.565,1.065,0.847c0.03,0.031,0.03,0.031,0.06,0.062c1.381,1.129,2.762,2.26,4.14,3.451
				c-0.564,0.875-1.161,1.91-1.818,3.009c-0.533,0.846-1.097,1.785-1.754,2.664c-0.032,0.063-0.096,0.095-0.126,0.156
				c-0.064,0.125-0.126,0.22-0.22,0.316c-0.221,0.312-0.438,0.625-0.689,0.909c-8.526,10.375-16.93,20.908-25.987,30.814
				c-0.879,0.971-1.818,1.91-2.79,2.789c-0.221,0.186-0.441,0.408-0.661,0.563c-2.695,2.477-5.642,4.547-8.902,6.207
				c-0.188,0.127-0.407,0.219-0.594,0.314c-2.447,1.285-5.048,2.289-7.745,3.074c-5.798,1.627-6.958,1.064-8.838-4.451
				c-2.541-7.43-4.546-14.83-5.988-22.135v-0.03C39.814,182.395,47.054,145.782,70.067,111.142z M191.727,56.002h31.944
				c0.091,0.217,0.155,0.468,0.217,0.688c-5.045,2.694-10.063,5.456-15.172,8.055c-0.689,0.346-1.943,0.095-2.728-0.313
				c-4.858-2.507-9.687-5.14-14.514-7.742C191.538,56.471,191.63,56.22,191.727,56.002z M285.016,186.689
				c-5.454,1.316-11.912,0.502-17.492-0.939c-9.78-2.542-16.834-9.436-23.354-17.432c3.546-2.255,6.711-4.26,10.221-6.486
				c0.031-0.031,0.093-0.065,0.127-0.095c1.347,1.255,2.634,2.507,3.979,3.698c5.457,4.953,11.444,7.932,17.994,8.278
				c3.262,0.186,6.708-0.316,10.284-1.538c0.438-0.157,0.846-0.312,1.283-0.472c0.125-0.061,0.284-0.091,0.41-0.155
				c0.124-0.062,0.251-0.095,0.372-0.157c0.221-0.095,0.411-0.155,0.598-0.281c0.155-0.066,0.313-0.126,0.472-0.221
				c9.561-4.169,15.861-11.6,17.804-22.32c0.94-5.329,0.408-11.001,0.031-16.457c-0.156-2.569,0.031-4.262,2.477-5.547
				c2.759-1.506,5.391-3.261,8.841-5.425c0.095-0.061,0.222-0.125,0.313-0.187c0.657,5.046,1.505,9.437,1.758,13.856
				c0.908,15.078-3.011,28.086-11.318,37.523c-0.563,0.658-1.16,1.316-1.787,1.943c-0.408,0.438-0.815,0.848-1.252,1.191
				c-0.095,0.095-0.192,0.155-0.281,0.25c-0.377,0.376-0.723,0.69-1.131,1.005c-0.25,0.217-0.502,0.438-0.754,0.627
				c-0.25,0.218-0.502,0.439-0.752,0.625C298.685,181.957,292.385,184.934,285.016,186.689z M285.895,156.437
				c-6.27,4.044-11.66,3.261-18.276-2.944c8.682-5.485,17.022-10.721,25.426-16.05C295.425,144.214,292.195,152.396,285.895,156.437
				z M232.759,130.168c-6.737,4.169-13.417,8.496-20.281,12.448c-1.41,0.814-4.044,1.096-5.329,0.313
				c-11.66-6.958-23.134-14.202-34.669-21.381c4.92-9.811,23.793-30.031,35.171-37.583c0-0.034,0.031-0.034,0.031-0.034
				c9.875,6.302,28.368,25.896,35.17,37.054c0.441,0.722,0.849,1.441,1.195,2.1C240.314,125.436,236.521,127.786,232.759,130.168z
				 M204.451,187.066c0,0.03,0.034,0.03,0.034,0.03c0.251,0.157,0.533,0.282,0.783,0.407c0.127,0.034,0.218,0.064,0.344,0.095
				c4.672,1.755,9.248-0.627,13.889-4.42c0.031-0.032,0.031-0.032,0.061-0.062c0.283-0.22,0.598-0.502,0.879-0.722
				c2.885,8.526,3.543,16.613,3.416,24.766c-0.125,7.992-1.631,15.549-5.359,22.285c-0.346,0.66-0.723,1.32-1.13,1.945
				c-0.469,0.783-0.971,1.537-1.503,2.26c-0.408,0.563-0.815,1.096-1.256,1.658c-0.438,0.533-0.908,1.064-1.377,1.602
				c-3.043,3.383-3.857,3.322-6.962-0.191c-7.396-8.398-10.47-18.461-10.375-29.372c0.062-7.837,1.253-15.674,1.976-23.512
				c0.376-0.282,0.782-0.593,1.19-0.969c0.03,0,0.03,0,0.064-0.03c0.061-0.035,0.155-0.096,0.217-0.16
				C201.066,184.809,202.759,186.217,204.451,187.066z M109.533,130.263c0,0.03,0,0.03,0,0.064
				c-0.035,0.125-0.035,0.248-0.065,0.343c-1.724,10.219-1.628,20.095,4.516,29.062c3.541,5.171,7.929,8.933,12.695,11.223
				c0.564,0.25,1.097,0.5,1.663,0.719c0.217,0.095,0.468,0.19,0.75,0.315c0.065,0,0.126,0.03,0.19,0.062
				c1.097,0.375,2.226,0.722,3.355,0.97c0.187,0.034,0.408,0.095,0.625,0.126c0.284,0.064,0.566,0.125,0.848,0.158
				c6.928,1.128,14.232-0.532,20.813-5.047c0.064-0.031,0.095-0.064,0.125-0.064c1.724-1.191,3.355-2.569,4.954-4.135
				c0.471-0.441,0.878-0.974,1.255-1.537c0,0,0.031,0,0.031-0.031c0.438-0.628,0.878-1.286,1.347-1.944
				c4.264,2.697,7.807,4.923,11.504,7.273c-0.03,0.062-0.091,0.092-0.125,0.157c-1.911,2.382-3.884,4.637-5.955,6.737
				c-0.532,0.533-1.065,1.069-1.597,1.567c-0.567,0.502-1.1,1.005-1.663,1.507c-0.377,0.345-0.754,0.657-1.16,0.97
				c-0.408,0.346-0.815,0.691-1.256,0.973c-1.849,1.503-3.823,2.789-5.893,3.855c-0.343,0.22-0.689,0.375-1.035,0.532
				c-3.135,1.567-6.52,2.666-10.218,3.198c-7.398,1.066-14.076,0.188-20.063-2.225c-0.187-0.065-0.408-0.157-0.625-0.252
				c-0.752-0.311-1.506-0.657-2.259-1.034c-0.784-0.407-1.567-0.844-2.352-1.316c-5.516-3.261-10.374-7.932-14.639-13.604
				c-9.561-12.791-9.998-27.619-7.585-42.76c0.282-1.568,0.659-3.166,1.16-5.548c0-0.064,0.032-0.155,0.032-0.22
				c3.701,2.32,7.022,4.264,10.096,6.551c0,0.033,0.03,0.033,0.03,0.033C109.689,127.441,109.689,129.072,109.533,130.263z
				 M123.826,136.062c9.027,5.706,17.648,11.13,26.269,16.582c-4.889,5.957-10.375,7.62-16.237,5.048
				C125.614,154.119,122.289,147.192,123.826,136.062z M303.322,39.761c3.857-1.377,7.775-2.758,11.789-4.2
				c0.03,0.156,0.03,0.312,0.062,0.471c0.939,8.903,1.849,17.333,2.854,26.738c-6.396-3.386-11.63-6.395-17.055-8.964
				c-5.266-2.477-10.781-4.515-17.021-7.087c-0.031,0-0.061-0.03-0.095-0.03C290.501,44.308,296.867,42.051,303.322,39.761z
				 M234.391,68.32c0.031-0.03,0.093-0.03,0.126-0.03c0.125-0.064,0.247-0.095,0.373-0.159c1.319-0.532,2.636-1.035,3.983-1.503
				c0.03,0,0.095-0.031,0.126-0.031c1.377-0.471,2.788-0.942,4.168-1.381c1.412-0.437,2.821-0.844,4.262-1.221
				c1.32-0.314,2.637-0.658,3.983-0.94c4.295-0.942,8.716-1.601,13.134-2.133c0.095,0,0.189-0.03,0.283-0.03
				c0.564-0.096,1.127-0.156,1.693-0.221c2.352-0.281,4.637-0.377,6.959-0.217h0.219c1.409,0.061,2.789,0.251,4.201,0.532
				c0.03,0,0.03,0,0.061,0c1.758,0.343,3.513,0.814,5.269,1.473c11.064,4.169,21.567,9.31,31.661,16.678
				c-0.03,0.03-0.095,0.062-0.125,0.091c-19.407,12.041-38.433,23.888-56.709,35.236c-4.606-5.109-9.188-10.218-13.729-15.266
				c-0.19-0.187-0.348-0.407-0.533-0.594c-2.854-3.168-5.706-6.334-8.529-9.5c-0.092-0.064-0.125-0.125-0.186-0.187
				c-4.357-4.827-8.686-9.655-13.043-14.483c3.01-1.786,6.176-3.449,9.53-4.892C232.509,69.104,233.448,68.697,234.391,68.32z
				 M133.733,62.333c4.827-1.222,9.715-1.693,14.639-1.568h0.095c8.651,0.156,17.459,2.165,26.299,5.36
				c1.38,0.502,2.728,1.035,4.075,1.598c0.848,0.315,1.662,0.658,2.476,1.004c0.377,0.156,0.755,0.312,1.101,0.472
				c0.813,0.342,1.628,0.689,2.411,1.064c3.04,1.317,6.019,2.664,8.871,3.885c-0.124,0.126-0.25,0.285-0.374,0.411
				c-2.664,2.914-5.267,5.798-7.899,8.682l-0.034,0.03c-6.269,6.898-12.443,13.669-18.744,20.597
				c-2.696,2.979-5.425,5.958-8.183,8.997c-18.024-11.192-36.52-22.726-55.86-34.703c0-0.03-0.034-0.03-0.034-0.03
				c0.159-0.095,0.315-0.187,0.44-0.282c0.062-0.03,0.156-0.095,0.218-0.125c4.797-2.823,9.092-5.266,13.231-7.933
				c0.156-0.094,0.312-0.186,0.468-0.312c0.064-0.034,0.095-0.064,0.16-0.095c5.421-3.355,10.938-5.672,16.488-7.022
				C133.638,62.333,133.701,62.333,133.733,62.333z M130.126,47.066c-0.062,0.03-0.126,0.064-0.187,0.095
				c-4.607,2.255-9.184,4.512-13.794,6.802c-1.126,0.563-2.226,1.096-3.352,1.663c-5.832,2.884-11.756,5.798-17.964,8.872
				c0.909-9.531,1.818-18.935,2.758-28.936C109.092,39.636,119.656,43.368,130.126,47.066z M36.146,54.119
				c9.5,5.893,18.87,11.694,28.244,17.492c43.48,27.022,86.99,54.075,130.501,81.127c1.757,1.065,3.039,1.914,4.014,2.728
				c0.845,0.722,1.439,1.443,1.787,2.29c0.624,1.503,0.533,3.478,0.03,6.737c0,0.032,0,0.032,0,0.066
				c-0.125,0.688-0.251,1.472-0.407,2.316c-4.014-2.442-7.836-4.762-11.629-7.144C139.343,128.6,90.032,97.473,40.693,66.376
				c-5.611-3.572-6.083-4.516-4.577-12.006C36.116,54.275,36.116,54.214,36.146,54.119z M245.675,330.418
				c-0.156,0-0.346,0.033-0.501,0.033c-4.983,0.344-9.842,0.406-14.328,0.125h-0.282c-3.164-0.189-6.143-0.502-8.871-1.004
				c18.969-19.998,22.917-44.264,20.284-71.191c1.473,1.945,2.885,3.855,4.295,5.77c0.062,0.063,0.126,0.154,0.156,0.221
				c6.896,9.246,13.354,18.086,20.126,26.676c8.179,10.373,17.461,19.686,28.777,27.021c-0.032,0.029-0.095,0.063-0.127,0.063
				c-10.376,6.395-30.534,11.064-49.027,12.287C245.988,330.418,245.831,330.451,245.675,330.418z M363.134,143.023v0.03
				c0.627,1.755,1.226,3.541,1.789,5.33c2.101,6.737,3.731,13.479,4.857,20.219c0,0.032,0,0.032,0,0.062
				c1.663,9.468,2.352,18.873,2.069,28.307c0,0.032,0,0.032,0,0.062c-0.437,15.297-3.32,30.533-8.683,45.736
				c-0.471,1.318-0.877,2.352-1.349,3.197V246c-1.472,2.914-3.196,3.072-7.616,1.129c-5.924-2.572-11.883-5.643-16.805-9.721
				c-4.858-4.01-9.309-8.398-13.479-13.038c-7.681-8.559-14.325-18.089-20.688-28.086c1.191-0.879,2.257-1.727,3.388-2.416
				c23.854-14.921,31.284-37.305,28.807-64.042c-0.439-4.893-1.789-9.72-2.413-14.639c-0.159-1.161,0.563-2.948,1.473-3.667
				c2.352-1.914,5.079-3.386,8.058-5.299c0.061-0.031,0.126-0.096,0.187-0.126C351.568,117.629,358.372,129.825,363.134,143.023z"/>
			<path fill-rule="evenodd" clip-rule="evenodd" fill="#FFFFFF" d="M285.895,156.437c-6.27,4.044-11.66,3.261-18.276-2.944
				c8.682-5.485,17.022-10.721,25.426-16.05C295.425,144.214,292.195,152.396,285.895,156.437z"/>
			<path fill-rule="evenodd" clip-rule="evenodd" fill="#FFFFFF" d="M150.095,152.644c-4.889,5.957-10.375,7.62-16.237,5.048
				c-8.244-3.573-11.568-10.5-10.031-21.63C132.854,141.768,141.475,147.192,150.095,152.644z"/>
		</g>
	</g>
</g>
</svg>
